/* XPM */
static char *bbed0ac625f74b92925714ecaf69b98bEv6hAbm28YNtuTts[] = {
/* columns rows colors chars-per-pixel */
"60 60 256 2 ",
"   c #0D1D19",
".  c #101F1C",
"X  c #08271C",
"o  c #112D19",
"O  c #122F29",
"+  c #32312D",
"@  c #4E341A",
"#  c #4D3B28",
"$  c #3C761B",
"%  c #294933",
"&  c #35583B",
"*  c #2B4834",
"=  c #3D7821",
"-  c #1D4429",
";  c #437A1E",
":  c #4E4434",
">  c #684F35",
",  c #437C23",
"<  c #467E29",
"1  c #4A7E2B",
"2  c #437729",
"3  c #4C7C36",
"4  c #17344A",
"5  c #163A57",
"6  c #0C3050",
"7  c #023B78",
"8  c #0E3869",
"9  c #203C54",
"0  c #19425D",
"q  c #25455B",
"w  c #36514C",
"e  c #1B4666",
"r  c #08437A",
"t  c #174877",
"y  c #1B547F",
"u  c #244866",
"i  c #375669",
"p  c #224C73",
"a  c #2B5778",
"s  c #2F526F",
"d  c #3A6479",
"f  c #346376",
"g  c #53574F",
"h  c #48694C",
"j  c #537D46",
"k  c #587757",
"l  c #4F6F51",
"z  c #6F6653",
"x  c #455967",
"c  c #486A77",
"v  c #516B72",
"b  c #6C7471",
"n  c #745F42",
"m  c #8A7A63",
"M  c #458225",
"N  c #498426",
"B  c #4D8A26",
"V  c #47822A",
"C  c #4B842B",
"Z  c #4D8A2B",
"A  c #528C2D",
"S  c #51882C",
"D  c #54922D",
"F  c #58942D",
"G  c #58982B",
"H  c #4D8432",
"J  c #4E8B31",
"K  c #4F8339",
"L  c #518633",
"P  c #538C33",
"I  c #53853C",
"U  c #558B3A",
"Y  c #598D37",
"T  c #559333",
"R  c #5A9534",
"E  c #5C9A35",
"W  c #5B933B",
"Q  c #5C9B3A",
"!  c #569736",
"~  c #4F902C",
"^  c #609C36",
"/  c #629D3C",
"(  c #61933A",
")  c #63A13D",
"_  c #63A336",
"`  c #44821D",
"'  c #548443",
"]  c #5B8D44",
"[  c #5A8848",
"{  c #5E9246",
"}  c #5D8854",
"|  c #649947",
" . c #669657",
".. c #679154",
"X. c #67A543",
"o. c #73A55E",
"O. c #658867",
"+. c #6C9766",
"@. c #678779",
"#. c #759473",
"$. c #74A268",
"%. c #78AB6D",
"&. c #598761",
"*. c #8E897C",
"=. c #82AD7C",
"-. c #003A83",
";. c #06478A",
":. c #15538B",
">. c #074C94",
",. c #085698",
"<. c #185897",
"1. c #134F89",
"2. c #285987",
"3. c #265D97",
"4. c #305A88",
"5. c #1A6398",
"6. c #2B6487",
"7. c #356788",
"8. c #3C718C",
"9. c #296897",
"0. c #366B95",
"q. c #3A7498",
"w. c #2F709A",
"e. c #0B5BA5",
"r. c #195CA3",
"t. c #1B63A5",
"y. c #1266AF",
"u. c #276AA7",
"i. c #2B75A8",
"p. c #3878A6",
"a. c #3A7AB5",
"s. c #2F6CAB",
"d. c #2C5FA0",
"f. c #477688",
"g. c #577887",
"h. c #467A95",
"j. c #557996",
"k. c #4C6C85",
"l. c #677C8F",
"z. c #467AA5",
"x. c #4E7AAE",
"c. c #405981",
"v. c #2877C6",
"b. c #3A83AF",
"n. c #4A829A",
"m. c #57869A",
"M. c #5D909D",
"N. c #688587",
"B. c #78988B",
"V. c #698897",
"C. c #758A99",
"Z. c #69929A",
"A. c #789598",
"S. c #799089",
"D. c #4985A6",
"F. c #548DA3",
"G. c #5689A8",
"H. c #5A93AB",
"J. c #5994A9",
"K. c #4887B7",
"L. c #558CB7",
"P. c #5B97B7",
"I. c #4B92B5",
"U. c #698DA3",
"Y. c #738CA2",
"T. c #6B9DAD",
"R. c #6696A8",
"E. c #7798A7",
"W. c #649BB3",
"Q. c #669BB7",
"!. c #7799B5",
"~. c #77A1AD",
"^. c #6CA4BA",
"/. c #6AA4B8",
"(. c #74A4B3",
"). c #72A9BE",
"_. c #7CACBA",
"`. c #79A6B8",
"'. c #7BB1BB",
"]. c #6BA1AF",
"[. c #7BA292",
"{. c #3B82C2",
"}. c #5796C6",
"|. c #508CC8",
" X c #659CC8",
".X c #709BCA",
"XX c #69A5C6",
"oX c #75AAC6",
"OX c #79B2C9",
"+X c #69A6D5",
"@X c #7AB3D7",
"#X c #73ADD8",
"$X c #73B6EE",
"%X c #5CA3DA",
"&X c #75C4FE",
"*X c #918D82",
"=X c #85999C",
"-X c #8D928A",
";X c #A99D8A",
":X c #8DB093",
">X c #8599A6",
",X c #8797AE",
"<X c #88A6A8",
"1X c #95A9AA",
"2X c #97B5A9",
"3X c #86A7B7",
"4X c #94A8B9",
"5X c #86B2BB",
"6X c #99B6BA",
"7X c #8BB2AF",
"8X c #B5BBB9",
"9X c #A7B1B3",
"0X c #A8A28D",
"qX c #9DC2B3",
"wX c #ADCFB4",
"eX c #97C098",
"rX c #88AAC5",
"tX c #95AAC5",
"yX c #84B4C3",
"uX c #8CBBCA",
"iX c #89B6C8",
"pX c #98B7C8",
"aX c #86ADD6",
"sX c #86B6D6",
"dX c #96B9D3",
"fX c #93AED1",
"gX c #A7BBC6",
"hX c #A7BDD6",
"jX c #B2BDC6",
"kX c #8ABAE1",
"lX c #97C6D6",
"zX c #93C2D0",
"xX c #A7C4CC",
"cX c #A9C7D8",
"vX c #B4D0D0",
"bX c #8AC5E8",
"nX c #97CBE7",
"mX c #86CAF8",
"MX c #97CFF3",
"NX c #B6CCE6",
"BX c #A8D7E8",
"VX c #B9D7E8",
"CX c #ACD8F5",
"ZX c #ADCCF1",
"AX c #B8E3ED",
"SX c #ABE2F8",
"DX c #B8E8F8",
"FX c #BBEFFA",
"GX c #C5D9D4",
"HX c #C8E7D8",
"JX c #D4E9D8",
"KX c #C9E6CE",
"LX c #C1D8E5",
"PX c #C6F6FE",
"IX c #D4FBFF",
"UX c #CAEAEC",
/* pixels */
"3 3 ; ; S C H K J Z H , B N H 1 L R Q A N A T Z T ! R T P Y Y P Y P R / / R R Q E ^ _ G G G ! G G F R Q ! E T T Z T D E ",
"3 H , C , C H H H C U C S A 2 ] L C Z Z Z Z A A Z A P P P Y W W Y Y P Y T T T R ^ ^ ^ ^ G G E E E R / T T N D G T E ! E ",
"I H < H V Y U C W V C L C P U I H L Y W W P T Q P P Y W W W | | Y ( | { | { W Y / R R E E T A S R W J W / T D ~ E E Q E ",
"3 H U U L L W Y L L [ ' 3 3 j [ ' ' ' ' ' ' ' [ .... .o. ...[ [ [ [ [ [ }  .+. . ...[ ] ] ] ] ] | ] { W S R R E ! T Q ! ",
"H C N V T L U L { ' } qXKXKXUXHXUXJXHXKXHXJXHXHXKXKXKXJXJXKXKXKXJXJXJXJXJXHXHXHXGXHXHXJXJXHXKXvXeX+...W A R Z E R T Q F ",
", Z N C C , < L 1 } qXqX<X6XxXpX3XxXLXLXvXgXgXvXvX8X8X8X8X8X8X8X8X8X8XgXgXgXhXcXhXpXpX6X6X6X6X1XwXKX+.{ E ^ A Q X./ _ Q ",
"A A N C Z N N < L  .[.~.c i i d d g.~.pX4XA.=X1X-X@.b *X*X*X*.*X*.*.-XS.C.V.V.m.m.j.g.f.g.v c x w vX=.| T R R / R R D G ",
"T A W L Z N T C U $.B.xXi c d f.m.d c 3XxX6X6X8X1X-X*X*X;X;X;X;X0X0X-X-XA.C.Z.V.m.m.m.m.f.k.f.c c @.:X| / F S W R Q T Q ",
"H U H U J C A A H %.2XZ.f f.f.d h.f.m.f.IX<XxX8X9X: g : > z n n n z z #.=XxX~.m.G.G.n.F.h.h.h.f.c B.:X{ Y D / Q / R E T ",
"< C L L W C Z Z I $.qXg.d f.7.F.D.n.F.m.VXcXgX9X1X: # # # # # > @ m 0X9X=X>X3XCXG.G.D.D.Q.h.h.m.k.A.:Xo.E F E R Q Q / T ",
"1 < U V C = M U K #.7Xd f.h.q.8.D.n.H.F.dXIXvXjXz # # # @ > > @ @ # # g =X>XZ.!.CXsXaXG.h.h.W.8.j.A.:X$.( D ^ R E D T A ",
"L C U C J V C U ' +.6XU.f.h.D.n.D.D.H.H.`.PXUXGXv + # *.m > @ @ # : g z 9X4XE.!.m.OXsXoXsXQ.h.h.g.Z.:X+.| R E A X.! ! R ",
"L C M N Z Z P U ' %.B.V.f.f.h.F.D.J.F.J.T.iXUXLX=Xg g *X*Xz z z z g : * A.<X`.(.uXW.).nXn.F.8.m.j.A.:XO.U X.E G T T R Z ",
"L P M M M N J U j :XB.3XU.f.h.h.F.H.J.J.`.T.AXUXvX=Xl.g g g g g b b S.=XxXlX5XR.n.W.n.).oXDXn.m.g.Z.:X} { / G B _ ^ X.! ",
"H U W J Z V C 3 j #.xXIXlXT.R.H.J.H.W.W._.`.cXLXhXl.,X>XGX9X9X9XjX1X1X4X~.yXzXlXsX).F.m.8.CX`.m.V.Z.[.k ..A G G ^ E Q T ",
"H V U V J P H 3 j @.g.rXIXBX^.n.H.H.^.W.!.rX!.hXVXY.gX>XLXtX4X4XjX,X,XcXiXuX).Q.).W.^.`.R.iXT.BXU.E.B.&. .Z E _ E ) X.T ",
"W L L L C , | ' +.B.N.pXuXFX(.J.H.W.^.^.).oXyXrXpXE.4X,XVXhX4XpXhX4X3XcXDXPXDX].(.T.j.`.`.W.nXuXuXVXN.k ] Q Q ) F X.X.! ",
"T W L Y C $ < ] +.S.A.3XR.uXzXT.H.H.W.W.^.oXiXpXdXE.4X,XNXhXtXpXcX4X3XlXBXBXDXlX(.U.U.R.R.W.Q.W.dXtX=Xl ] T Q ) R ) ) ! ",
"C C < C , Z V 2 O.@.A.Y.M.`.AXm.W.W.Q./.^.).OXiXdX!.rX,XNXhXtXpXcX4X3XpXuXzXCXBXuX5XE.M.m.m.F.`.dXY.<Xl { Q E R ^ ^ Q ! ",
"A V L H , A Y ' h @.N.Z.T.uXPXM.R.W.Q.).oXoXoXoXdX!.rX,XNXhXtXpXhXtX3XdXiX_.zXzXPXFX`.U.T.M.J.n.3X3X=Xh K T R ) E E Q Q ",
"C P Y U V C N ] % A.g.Y.(.zXFXlXR.J.R.^.oXoXoXyXsX!.rX!.NXhXtXpXNXpX3XdXdX_.5X_.5XFXAXuX(.J.R.R.!.cXA.l  .X.Q R E ^ Q Q ",
"Z Y U W C T N I & 2XV.E.T._.lXAXuX`.T.Q.^.oXoXsXsX!.rX!.ZXcXfXfXNXdX`.dXlXyX5X(.Z.zXPXuXT.yXT._.U.VXA.w { Z T R F ^ Q Q ",
"P N , U , N N ] & 7XE.3X`._._.zXFXlX_.^.^.^.oXOXaX.XaX.XZXZXfXfXcXdX`.dXcXuXyX`.(.yXPXBX(.(.M.iXE.cX<X& | T T Z D / Q T ",
"C R U H Y T C 3 O N.<X3X_.iXuXyXIXBXyX`.).XXoX@X@X.XaX.XZXZXfXfXdXsXoXdXnXuXiX_.`.M.uXPXDXyX~._.5X4X6X& ] E ! E A / Q D ",
"A P L H L V C  .% N.4X~.yXiXyXuXBXAX`.T./.@XP.#XXXoX0.z.CXCXoXkXaXaXoXaXBXyX_.(.T.(.R.(.IXlX(.~.iXcX2X& { Q T T B X.E ) ",
"P C L C V P W I % v pXcX~._.zXiXAXcX~.'.^.OX^.#X#XXX6.4.+XL.t t 7 2.z.oXDXlXOXR.T.R.M.M.PXyXR.~.~.VX2Xl { Q D ^ A / T T ",
"N R < C W T V ..% v 4XAX`.yXuX5XIX5XR.yX/.).OXXXXXL.2.9. XK.7 7 <.7 8 0.CXMXsXR.R.F.m.n.PX(.Z.E.~.pX1XO.] T Q E T R Q T ",
"N C C W , C V ' % @.<XiXAX5X'.5XIXzX~.`.].).OXXX#XP.p.K.$X+X<.<.r.u.9.z.@XXXoXoXW.m.m.h.PX(.U.~.V.7X<XO.] T D E / R E E ",
"N P H U L P V [ % B.N.cXlXzX(.uXAXAXzX_.].'.).oX#X}.K.}.$X$Xt.t.r.u.a.K.#XP.Q.Q./.F.F.h.AX_.R.E.Z.7X=XO.] T ) Z E T T Q ",
"M C H H Y Z L { % N.V.VX_.yXuXiXuXPXDXlX'.'./.oXXX}.K.K.&X$Xy.y.v.y.,.s.$X#XXXJ.P.F.J.F.lXuXE.V.E.7XB.+.| E X.D A P T Q ",
"C P W L H L W ] % N.V.cX_._.uX5X5XBXDXFX'.'./.oXOX#XI.b.&X&Xy.y.e.y.u.a.#XP.Q.Q.H.H.J.H.`.BXiXU.Z.<X=X#.] ^ Q R / T ! ! ",
"N C < U L P A  .% N.C.V.DXT.iX(.iX5XBXIX'.'.'./.OX#XK.i.&X&Xe.e.e.e.>.u.+X XXXP././.F.F.h.CXBXdXm.A.=Xo | E Z T E A / Z ",
"C M C P C V < ..* A.>Xg.VX(.(.(.].(.iXAXIX5X5XOX@XbXi.a.mX$X,.,.:.:.7 <.%X XP.P.H.W.G.Q.h.h.nXiXj.E.E.X | B ) E T E T E ",
"Z Z V Z C A J } * N.6X5X~.(.uXW.].].Z._.PXPXIXBXbXXXr t.$X$X:.:.r r 7 <.}. X}.^.H.H.D.L.q.h.iXiXj.T.3Xo { E T E R ^ T T ",
"P Z M P P C J [ % b E.pXR.lXOXm.J.].R.M.'.5XBXSXbX+Xr t.%X|.7 8 7 7 ;.<.|. XP.^.P.H.D.z.0.0.H.iXh.m.E.o ..X.Z Z A R ! Q ",
"A N M Z A C C [ O b v Z.iXDX`.OX^.P.m.h.(.'.SXFXSXmX9.>.<.<.7 7 7 7 ;.1.K.+XQ.P.H.F.D.q.0.0.0.oXG.T.E.X ] D ! T R E T W ",
"A Z T V C Y P ..O b x c 3XlXoXFXD.F.J.F./.R.^.oXbX$X9.;.7 -.7 -.7 ;.>.;.K.#XoXH.F.n.z.0.9.2.y L.aXdX3XX ] Z Q Z D D B T ",
"A N W Z A Y U  .* x c i f.h.Q.nXq.n./.oXOXF.F.^.K.a.;.r.<.;.7 7 ;.>.>.;.x.@X@XH.m.h.z.9.3.3.1.z.sXfX3XX [ E T M T F A Q ",
"Z ; P Y Y C C  .w w c i u a H.h.bXD.6.7.^.F.D.P.K.a.;.<.>.;.>.>.>.>.>.;.a.+XsXR.n.h.q.3.3.3.9.p.L.!.!.X 3 T J Z D R Z A ",
"A M P T W L W $.* x c i s d H.0.@XP.G.q.H.D.n.p.K.}.r.r.;.>.,.;.,.,.;.>.s.}.@XW.h.8.0.2.:.3.u.p.6.j.E.O [ R ! Z N R R Q ",
"A M Z X.C W V  .* v g.k.c.7.6.2.sXz. XsXq.D.p.D.K.|.<.r.,.,.>.e.,.,.,.;.a.L.G.PXQ.f.0.1.:.3.a.1.2.j.Y.O ..T J Q D R R A ",
"N Z , W L L U +.* x c d d 7.7.4.z.G.@XkXQ.P.p.K.}.}.u.u.e.e.,.,.,.,.t.,.a.L.D.BXSX8.6.3.:.<.s.3.4.j.l.X ] R Z Z R E M / ",
"N A W , Y | ,  .* x x s s a 6.4.0.4.0.q. X@XXXp.K.}.a.{.,.>.,.,.,.,.u.t.a.L.z.oXPXH.z.3.7 s.s.:.t k.l.X { A ! Z E _ R T ",
"N A V L | L V  .* x i u e e 2.2.2.2.}.K.w.K.mXbXmXMXmX&Xi.,.e.,.,.,.i.u.a.K.z.F.FXQ.4.3.d.|.d.9.4.j.C.w  .A Z Z B ^ X.R ",
"R , C C , V 1  .& x i q 5 5 t 2.:.r w.i.9.5.}.K.I.I.b.|.5.<.5.;.<.<.u.u.p.K.D.h.SXMX0.2.x.|.:.2.a k.l.w | D Z ! D B E Q ",
"$ Z T J C Y 1  .w x i u 5 6 t y 9.9.<.i.|.p.b.b.b.K.p.K.5.5.5.5.5.5.u.u.p.p.D.n.OXSX X1.d.x.3.q.x.V.l.O U D ! X.E D A Z ",
"N R C C Y Y C $.h x u u e 8 t t r 5.;.5.i.i.b.I.I.XXK.K.9.5.5.w.9.i.u.i.p.w.q.G.D.Q. Xp.x.s.x.MXdXhX>Xh I F Z ) E ) Z M ",
"W T R Z A W 1 [ h w q u p t t r :.5.:.b.i.b.%XI.I.XXq.p.p.p.9.i.w.b.i.i.a.9.q.L.P.D.+Xz.z.|..XaXj.U.A.l | A R Z ) A / B ",
"P P Z A A A C [ k v 4 u 8 t 2.t 9.9.a.+X#X#X#X+XP.D.w.9.w.p.p.p.p.p.p.w.9.9.p.D.w.P.L.L.z.#X.Xx.c.g.B.#.I C A Z W P Z A ",
"W A | Z A P L I O.w q 6 8 4.2.0.q. XMXMXkX@X Xq.z.w.6.6.6.w.w.9.w.w.w.w.9.9.9.9.z.D.D. X.XaXx.a s g.B.+.L H N W T T P T ",
"D Z Z R N < 2 j O.w i 6 5 8 p G.bXMXbXQ.q.q.q.a 6.6.2.6.7.0.0.6.0.0.q.q.p.p.D.D.p.P.#XsXz.2.p a u v B.j I N T M J T T A ",
"R D Z C W < I j +.l O 4 5 s j.aXsXG.a p e 0 e e e e p a a f a a 6.6.6.7.q.D.L.P.XXXXQ.z.a p a s 4 v O.[ I Y A P J T R C ",
"` N E V = = 1 [ O.@.w q s j.!.dX!.s 6 0 u 5 5 5 5 0 u u s s s s a a a a 2.7.h.D.Q.D.4.5 5 a 7.s O h k ..| S A Z J J P M ",
"A M A N , , I 3 j #.2X=X>X3XtXfXl.i 9 4 4 O 4 4 4 4 4 5 5 q q q e e e e e e p a p e u 6 6 5 s q w & j ' H C W M P V A , ",
"Z W V C J H U 2 j +.wXvXHXVXNXNXE.C.C.V.l.V.V.l.l.V.V.V.V.C.C.Y.Y.Y.Y.Y.E.E.!.!.!.U.U.Y.pXtX6XA.h o [ I W A A , T M P A ",
"W Z U = %.C M L 1 ..$.eX2X2XvXxX1X=XC.A.C.=X>XC.C.A.=X=X=X=X>X>X>XE.E.E.E.E.E.A.E.V.A.A.2X:X2XB.O.[ ' W T B T C W < W P ",
"U < U C J , Z , L Y I  .} h w *   .     X       .       .   . X X X X X X X X X - k +.+.j 3 [ 3 { ] Y A F D M R Z C C A ",
"1 < < L < M V < < < L ] ..%.#.#.O.O.k k l k l k h l l k l k k k O.O.O.O.#.#.#.$.[ 3 2 1 L S ( | C H P D B E A Z P L L L ",
"< < , L , < , < < N W L C ] 3 ] I I I { 1 K 2 I ' I ' ] ] H I ] ] ' ' I ' ' I K H H U N B D A / T ^ F N A D Z Z Z C H L ",
"$ , ; V V < V U C < N Z N H L W | M Z Z N J M Z J ! X.C Z N ! Z C C C H Y U Y L W P M $ B E B D / A F D F N R C C C C L "
};
