/* XPM */
static char *e008953e54e4440dd633b2239615aead8YMaTp7PZ22MaEZU[] = {
/* columns rows colors chars-per-pixel */
"60 60 242 2 ",
"   c #2B2705",
".  c #33260A",
"X  c #2F2715",
"o  c #2C2A25",
"O  c #372B23",
"+  c #3B3329",
"@  c #242337",
"#  c #383637",
"$  c #191100",
"%  c #473918",
"&  c #4C3910",
"*  c #473829",
"=  c #533C29",
"-  c #483C35",
";  c #573E37",
":  c #3D761D",
">  c #3E7B1B",
",  c #3E7722",
"<  c #574206",
"1  c #5A4719",
"2  c #524D12",
"3  c #695514",
"4  c #437C1E",
"5  c #4B4425",
"6  c #564727",
"7  c #4A4537",
"8  c #534333",
"9  c #574B38",
"0  c #5A5439",
"q  c #5F5629",
"w  c #685829",
"e  c #675839",
"r  c #72592B",
"t  c #447C24",
"y  c #467D29",
"u  c #497E2B",
"i  c #457727",
"p  c #537C2E",
"a  c #567C35",
"s  c #566434",
"d  c #77663B",
"f  c #726D2E",
"g  c #79640B",
"h  c #36354A",
"j  c #333049",
"k  c #423F48",
"l  c #3F4344",
"z  c #4C4746",
"x  c #534A46",
"c  c #5B5847",
"v  c #484855",
"b  c #544A59",
"n  c #585858",
"m  c #4B5256",
"M  c #6B5A4C",
"N  c #655947",
"B  c #645959",
"V  c #6B5648",
"C  c #5A6752",
"Z  c #6A694B",
"A  c #766848",
"S  c #686356",
"D  c #746858",
"F  c #777557",
"G  c #71794B",
"H  c #595865",
"J  c #4F4E67",
"K  c #655968",
"L  c #6F5872",
"P  c #5C6167",
"I  c #666569",
"U  c #766C66",
"Y  c #797369",
"T  c #666775",
"R  c #756B7D",
"E  c #777679",
"W  c #6B756F",
"Q  c #88721C",
"!  c #887836",
"~  c #927C30",
"^  c #86774A",
"/  c #847758",
"(  c #937F42",
")  c #87776A",
"_  c #8C7E76",
"`  c #46841F",
"'  c #468224",
"]  c #498426",
"[  c #4C8B26",
"{  c #46822A",
"}  c #4B842B",
"|  c #4E8A2B",
" . c #468824",
".. c #52862D",
"X. c #528C2D",
"o. c #588A2B",
"O. c #4E912A",
"+. c #4F982C",
"@. c #54922D",
"#. c #57962F",
"$. c #4E8531",
"%. c #4E8A31",
"&. c #528532",
"*. c #538C33",
"=. c #598D34",
"-. c #558C3A",
";. c #5B8D3B",
":. c #588539",
">. c #559233",
",. c #599635",
"<. c #5A9434",
"1. c #569932",
"2. c #5C9A35",
"3. c #56923A",
"4. c #5B943A",
"5. c #5D9B3A",
"6. c #4F9137",
"7. c #62893B",
"8. c #63943C",
"9. c #619D3B",
"0. c #669836",
"q. c #60892D",
"w. c #5EA337",
"e. c #63A13C",
"r. c #68A73E",
"t. c #5D9540",
"y. c #5E8842",
"u. c #638A48",
"i. c #639342",
"p. c #639C41",
"a. c #699647",
"s. c #749B49",
"d. c #688956",
"f. c #778A55",
"g. c #6E9856",
"h. c #759957",
"j. c #798F4E",
"k. c #65A241",
"l. c #69A543",
"z. c #69A448",
"x. c #77A648",
"c. c #78A558",
"v. c #778674",
"b. c #7FB061",
"n. c #B79A19",
"m. c #AC8F15",
"M. c #BDA21F",
"N. c #989535",
"B. c #929031",
"V. c #A48829",
"C. c #A79428",
"Z. c #A59739",
"A. c #B2962F",
"S. c #B7A529",
"D. c #B5A73B",
"F. c #AFAD3B",
"G. c #91912B",
"H. c #C19F23",
"J. c #CCB031",
"K. c #D8C23B",
"L. c #84854B",
"P. c #8C9054",
"I. c #A79746",
"U. c #A59556",
"Y. c #87AA5B",
"T. c #98B659",
"R. c #93AF50",
"E. c #BAA74A",
"W. c #B9B444",
"Q. c #A8B058",
"!. c #B6B357",
"~. c #ABA553",
"^. c #87816C",
"/. c #859966",
"(. c #959A6A",
"). c #908C77",
"_. c #A6946F",
"`. c #87AC66",
"'. c #92A969",
"]. c #98B469",
"[. c #96AC77",
"{. c #9AB779",
"}. c #8DB071",
"|. c #AAB669",
" X c #B7B667",
".X c #B8A777",
"XX c #A9BA79",
"oX c #B5B978",
"OX c #B0AA67",
"+X c #C8B646",
"@X c #C7AB4A",
"#X c #C2B36F",
"$X c #B4C657",
"%X c #AAC57B",
"&X c #BAC779",
"*X c #B5C46B",
"=X c #C7C759",
"-X c #C8C975",
";X c #D6D376",
":X c #CFC66B",
">X c #E4D566",
",X c #E1C154",
"<X c #737489",
"1X c #847B87",
"2X c #846E83",
"3X c #7C8487",
"4X c #798591",
"5X c #888687",
"6X c #948988",
"7X c #879587",
"8X c #898395",
"9X c #988B98",
"0X c #9A9894",
"qX c #959992",
"wX c #A79687",
"eX c #A59A9C",
"rX c #A68C8F",
"tX c #97AB83",
"yX c #9AB394",
"uX c #B9AC9D",
"iX c #AEB18E",
"pX c #A996A9",
"aX c #B4AAA7",
"sX c #B6B7A3",
"dX c #B3ABB4",
"fX c #9598AA",
"gX c #C5B98B",
"hX c #C2B3B7",
"jX c #B8CA96",
"kX c #AFC88A",
"lX c #B6C6B3",
"zX c #9FC087",
"xX c #D0CF94",
"cX c #CECCB3",
"vX c #D7E2B0",
"bX c #EBDA88",
"nX c #D7BCCC",
"mX c #BAC4C3",
"MX c #D2CBCA",
"NX c #E1CCD7",
"BX c #FCE9F7",
"VX c #F8DDF0",
/* pixels */
"u $.i y $.$.} &.} &.} $.} } } u &.t.-.*.[ [ >.| 3.4.4.-.*.-.>.@.#.O.#.9.9.,.#.2.w.1.w.+.@.>.4.<.>.@.>.9.>.5.X.<.[ #.@.1.",
"u $.y $.i } } } -.%.} } } $.$.-.$.} *.*.| | <.X.| *.&.-...>.>.,.@.@.#.>.>.4.>.2.#.w.e.e.@.5.4.4.9.>.5.| 2. .>.X.@.1.,.1.",
"&.$.y &.} -.-.} *.} &.&.*.&.} *.-.} 3.>.>.X.>.>.3.-.-.4.4.4.5.e.#.1.4.<.>.9.>.>.2.O.#.1.2.| *.*.>.@.>.>.5.| 2.@.2.1.2.1.",
"} $.*.*.*.&.4.3.3.} &.} $.} $.*.$.%.| | <.X...<.4.*.3.*.4.X.>.>.#.2.>.4.=.>.X.X.2.1.@.#.@.2.4.| <.2.@.2.@.>.>.2.,.>.5.,.",
"$.} } } 3.&.*.&.-.-.&.} %.} -.*.} >.} | X.} | *.4.>.4.*.5.>.1.@.@.5.X.3.=.@.<.>.4.,.O.e.,.,.4.9.<.<.<.>.@.>.@.5.<.>.2.,.",
"t } } } } t t ..} &.} &.*.$.-.%.%.*.] >.} } >.| | *.*.>.>.1.1.>.X.9.5.4.4.=.8.X.#.2.0.2.,.2.9.@.X.>.5.2.2.5.>.9.k.9.e.5.",
"&.&.} } } } } { ..} } } } } &.*.} ' ] >.X.X.4.*.| >.| >.| 2.1.2.@.1.e.4.9.=.@.X.9.2.>.l.#.2.X.2.5.9.>.5.>.,.>.e.<.,.@.>.",
">.*.3.&.&.} -.} *.} | *.%.*.} *.>.| >.<.9.3.*.*.>.>.>.>.>.>.,.1.2.@.r.,.2.@.@.9.9.4.9.e.@.#.@.e.>.5.>.2.5.>.@.>.2.2.@.5.",
"} *.} ..&.} *.&.} 4.4.%.*.{ } ] | [ ,.<.3.-.*.>.] X.>.>.| >.X.>.e.2.2.#.@.9. .1.X.,.k.X.| 5.,.@.,.,.,.,.@.@.5.5.9.,.2.>.",
"t } ....3.} &...} *.*.4.&.%.5.*.]  .| | &...*.] *.} | 4.} *.4.} >.2.@.@.1.[ 1.@.@.9.>.2.9.| @.l.<.k.9.k.>.5.5.>.5.5.e.@.",
"} { *.{ } t { %.| %.-.| >.| 4.>.>.| <.| *.4.4.5.} ,.5.*.-.&.i a.*.>.9.e.2.#.[ 2.,.2.>.9.,.2.l.>.l.e.e.2.2.@.1.@.2.@.@.X.",
"..} *.} &.} } %.| *.| | } >.{ >.| X.| X.*.&.p.5.5.,.| 4.t.:.y.a :.8.=.X.e.2.[ 1.>.,.e.k.2.>.2.e.5.2.5.<.e.#.2.@.e.>.>.,.",
"&.} u } &.&.*.*.*.} *.| | } *...| ' ..} ..*.*.>.O.X.>.} &.h.{.jXkXa.i.p.9.@.e.#.e.@.9.9.2.2.,.e.1.r.,.>.X.e.9.#.>.#.,.[ ",
"&.*.} u { } %.*.| >.} 3.| | *.X.<.>.} ..=...5.>.>.>.>.t.u.h.jXkX`.}.`.;...9.k.| X.e.e.2.5.9.2.2.@.9.2.9.1.2.@.[ e.9.e.#.",
"} *.4.*.$.} { { } >.*.*.>.X.X.>.<.*...} *.*.>.O.2.| *.4.u.f.[.tXjX[.a g.p.*.>.@.,.@.@.9.0.9.e.[ >.@.,.2.e.[ #.2.9.1.2.@.",
"} } -.u *.-.} u } { 4.4.| 5.X.5.} *.&.*.3.*.,.| O.5.&.a.}.f.(.xX[.iXyXh.y.i.4.,.| <.>.| @.@.X.0.>.2.5.e.9.#.#.e.2.e.l.@.",
"4.} &.&.$.t t.-.} 4.} *.5.X.<.*.k.*.} =.3.*.>.>.>.-.Y.XXL.iXxX#XxXiXsXsX}.h.i.o.o.9.5.>.1.2.@.<.X.>.5.9.,.2.2.l.#.r.r.1.",
"-.3.-.*.} t u -.3.{ %.*.>.>.} { &...*...>.<.5.t.4.h.[.vXxX_.xX.XxXgXcXsXyXtXu.a.i.3.5.1.+.1.<.=.=.} <.@.X.@.x.1.#.r.e.1.",
"%.{ t } u $.u t } } >.>.>.X...=.*.-.X.@.[ >.*.u.d.d.cXF _.gX.XU..XiXuX0Xv.7XyXg.a.i.5.@.+.1.p...<.k.>.X.5.@.@.9.2.9.5.1.",
"%.} &.} i -.;.&.%.>.>.| <.>.9.4.=.*.| O. .%.u.d.v.^.N % % A _.gXP.Z 6X5XE 3Xv.yX}.a.9.1.[ @.4.3.4.X.<.5.] >.,.9.2.2.2.5.",
"} 3.3.&.} &.} -.3.} >.| | >.>.| ..o.@.[ | $.d.c _ eXrXrXV e & ^ e M n E 8X<X4XW sXzXi.X.@.O.@.X.9.2.>.[ <.k.5.9.2.5.2.5.",
"&.*.} 4.&.=.u ..4.>.>.>.>.>.2.>.@.@.| 4.:.d.v.E 1XNXnXnXwX= 6 * D O z b <XfXT v 7XlX`.;.>. .| >.@.5.>.,.| | X.>.>.5.9.5.",
"*.$.u *.i } } } &.>.' | <.2.@.@.X.X...g.u.C n I pXhXVXBXNXY - 9 U z # j h J J h E W tXg.4.l.#.>.k.,.[ 5.<.4.<.| >.9.9.>.",
"$.4.*.$.;.*.} t } &.5.>.' 5.| 2.9.>.a.u.F m b L dXnXBXNXaX6XB B 0Xm h j j h j v z n 7Xd.g.9.9.r.r.2.l.X.>.X.5.4.X.k.9.@.",
"*.-.$.} *.} } 4.3.} >.| X.| *.<.X.;.u.v.7 K L R 9XpXdXpX8XR T R E H @ j @ j v b 1Xx 0XtX{.s.9.e.9.#.5.@.>.<.*.>.} l.5.e.",
"*.$.} } } -.4.} } | t *.*.>...*.*.y./.sX9X2Xb K K R H 1X8XK R T v 5XP l @ @ v dXeX6XaXMX/.}.4.#.e.e.@.@.5.,.4.>.*.5.,.,.",
"} 3.u } 3.3.{ 4.| *.4., : 3.} &.7.s Z S 6XpX1Xb b K b 1X1XJ H T T m J T v <X0XeXaX) 8 D F [.=.2.@.<.,.>.>.<.>.k.>.<.9.>.",
"} $.} 3.t } { } >.} *.&.4.:.:.:.j.s c X 6XMXNX9XK H T <XR H v T I I H P 3XdX9XhXcXwX= Y 7 (.;.2.2.2.e.5.>.>.| 5.9.<.2.2.",
"} >.} -.%.*.{ *.%.} &.*.&.u p a f 6 9 X _ 5X5X5XE I T b H T m H I I n n I 1XI 6X) / * * F /.;.X.<.>.X.>.2.2.k.X.<.@.@.5.",
"t } } } *.| | >.| &.3.u :.p 7.'.G e N 8 Y S z m 5XfX5XP m n K K I z n qX5X5XB + ) wX. e A vX7.9.5.5.2.@.>.5.k.[ X.@.@.5.",
"} =.4.| | *.>.%.*.$.*.&.a :.{.u.^ d e 5 Z c # o 3XdXlX7XI n K K z 1X6XcXMX5X# 7 x D = 6 % [.7.>.>.5.e.2.2.e.2.5.2.@.<.,.",
"} &.} &.%.%.| 3.} %.i &.i.s.Y.L.L.d q * S 7 o # P 3XmXqXE E x B U U Y aX6XB - O U O 8 0 q XXh.-.>.9.X.9.l.>.[ @.,.X.9.| ",
"$.} } -.$.{ { %.| t -.z...`.P.L.U.^ 6 N - x z + W v.m l dXdXY U sXcX- B wX_ * * V * = e 2 |.%X;.9.9.@.X.2.X.9.2.>.2.>.5.",
"%.&.u &.$.%.6.%.%.3.| o.a.].f ! ! d 6 9 + z n S I C l # 5X0XsXvX).iX- - M 0 M )._ ; % 6 q &X|.s.8.e.2.e.,.2.@.9.,.5.>.>.",
">.| 4 o.*.} &.} %.3.3.8.Y.|.N.~ I.( w 9 O 7 c S c 7 + o N ^._./ wX) O x M 0 F iXwXM = 1 ! -X~.T.0.2.X.l.9.z.| ] X.<.3.5.",
"|  .4 X.o.] } t %.} 3.x.T.~.E.~ E.~ 1 6 8 S D U c c x - 8 N / / A N + - 8 c ).iX^.A % 1 ~ #XZ.Q.0.9.<.9.>.X.<.>.<.5.>.4.",
"O.| X.] ] =.*.} &.} 8.T.*XE.@XV.V.Q & & 6 D S D ).U x B D A A .X/ / ) ) ).uXsXF 0 e & 3 Z.@XE.W.T.9.X.<.5.| >.X.>.*.} >.",
"| [ 4.X.o.=.*.*.4.*.Y.|.!.,XA.A.V.V.f w 6 9 * 7 I ).Y Y D D d / _.A ).uXuX^.c   5 q < ~ E.+X>X=Xx.>.*.{ ] 4.>.' >.>.X.4.",
"&.t ..*.>.} } *.p.s.%X~.C.,Xm.H.n.D.Z.~ w e + 7 o Y 0X6X- 0 / _.^ e wXuX) + 9 / & 1 3 Z.W.+X>X!.R.3.>.9.X.>.| >.>.<.| X.",
"*.} | >.4.*.3.t.-.].&XN.@X+XJ.n.m.S.C.~ r w X + z o x 6Xc M / / 6 e _ M N M / w < 3 Q D.W.F.=XN.o.] | 5.| <.<.| ] ,.<.2.",
"-.i } z.} 4.} -.-.].&X~.D.J.J.n.m.J.J.V.! & . 7 - x O U Y N 8 8 8 D ) 8 ) 6 1 3 < g =XF.=X$XN.0.@.2.>.e.5.@.@.5.>.>.>.@.",
"$.} t 4...*.-.-.&.Y.%X-XN.V.n.M.J.J.S.V.I.r   $ O - + c 9 0 9 8 M + M D M & r < Q E.bXF.$XR.q.=.>.| [ X.@.>.' X.1.2.` 9.",
"} | >.t *.z.y $.-.i.].|.!.Z.D.S.M.J.J.C.Z.I.w %   X 5 e 5 e 9 = * c S N 6 & r I.@XD.;X$XT.0.2.>.9.9.>.2.e.@.#.| 1.e.,.#.",
"] X.' ..8.-.} u , y a Y.|.;X;XG.S.K.S.C.Z.!.^ d 6     2 w L.^ A 9 9 c Z % L. X~.I.:X*XR.x.[ l.5.@.@.e.1.9.[ [ [ [ 9.r.,.",
">.' ] ] 4 } u *.$.$.&.p Y.&X XN.A.+XS.F.N.I. XvXd 2 f OXbX-XU.( 6 0 0 G G (.|.OX XR.R.0.0.9.@.O.O.X.9.2.2.@.#.,.@.[ 2.9.",
"> X.>...} >.u %.&.&.} } &.7.].Q.B.F.N.N.G.B.oXxXxXQ.Q.-X;X!.U.OXG P.s /.h./.'.].Y.s.q.<.>.@.2.| @.2.@.e.X.X.5.l.2.@.X.| ",
"' 4.} } >.6.{ z.u i } } } y 7.P.|.oX&X&XkXxXjXjXjXXX&X-X-X XOX.XiX(.'.j.h.c.`.`.a.8.#.,.@.] 3.-.<.X.>.<.[ @.@.k.<.l.| ' ",
"4.3.3.%.%.3.{ $.;.i } } *.*.i.7.j.Y.].%X{.kX}.{.zXXX&X*X*X X&X&XoXkX'.c.a.:.c.-.} *.5.` | | &.} *.] ] @.<.X.>.X.e.@.9.} ",
"..*.| *.*.%.} -.} } u &.{ 3.3.;.7.&.8.a.x.c.;.&.8.c.i.s.8.s.s.Y.Y.c.c.&.4.} &.} } } | <.{ 4.{ *...3...| X.] >.} <.*.| X.",
">.| k.| %.*.&.$.$.*.3.} } -.: | } } } } *.*.z...: 3.4.3.4.*.t $.*.-.8.z.{ *.9.*.} } ..{ 3.p.*.' ..} } 3...{ ] 4.>.>.*.>.",
"<.| ] >.} { t } u } &.} } -.>.p.4...*.*.{ } >.} p.*.9.*.-.-.*.} $.&.3.=.*.] 4...*.*...3.*...} { *.*.3.t { } X.| | >.>...",
">.>.X.} >.t &.&.u } 3.} >.{ | } >.| | | { | *.>.3.&.3...} &.-.*.} ..3.t 4.] ......{ z.-.{ } | | ..4.} 3...*.>.] | >.3.} ",
"{ ] >.] t t } $.t : } 4.} 4.} } | 4.X.] >.| 9.*.*.{ t *.} *.>., } t 4.{ X.] X.X.*...t ..>...3.t >.3.>.3.5.] 3.| | | *.{ ",
"| { >.} t : &.u } &.} 4 5.| *.<.*.4.*.| >.] } { | p.{ t t { { 3.*.t 3.} ] | X.{ ..4.t -.} } ] 9.3.5.*.X.] >...] ..{ | t ",
"| 4.{ } &.$.&., } 3.} { >.t <.] >.| >.>.X.>.] 5.9.5.>.} } | >.4...*.} *.] >...} } 4.} t } } 9.>.X.| X.X.<.X...{ >.' *.| ",
"5.| &.: b.} t &.} 4...>.} X.>.] | X.9.4.>.] | ] | ] 9...} ' *.| } -.8.>.4.{ 4.t &.y 3.-.: *...X.| ,.| <.>.] X.] 4.' >.*.",
"&.t &.} &.t &.i *.&.....] ] > 5.] <.>.>.| ' | | 5.>.] *.*.>.} { | } | *.>.| ..<.| t } *.} ....' <.,.>.[ >.>.' <.| | } | ",
"} t u &.{ u } u t } *.3.*.<. .5.<.5.] >.<.5.] | ' } ] ] ] X.| { >...} } | | X.4.&.} } t { &.4.p. .[ @.@.| 5.X.| X...| | ",
"u u t &.t u t u t } *.*.} >.[ @.@.| | 5.> ] ' >.X.] ..<.3.' [ <.| | | X.>.X.| } } &.} { &.-.*.9.>.2.@. .| @.| X.| | | | ",
": t , } } u } &.} { } ] 4 X.| >.5.' ] ] | >.4 | | 5.z.| | X.<.| | } } | X.*.X.} >.>.} t &.>.} >.9.X.,.@.,. .<.] ] ] } | "
};
