/* XPM */
static char *_d2c7e7499dc4f06ae0c1b26c5b8f0e8SdWtWP6Cfa99vreH[] = {
/* columns rows colors chars-per-pixel */
"60 60 173 2 ",
"   c #3D751D",
".  c #3E7C1C",
"X  c #3F7622",
"o  c #3F7B23",
"O  c #417A1D",
"+  c #406E23",
"@  c #437425",
"#  c #447D24",
"$  c #46732C",
"%  c #4A752A",
"&  c #467D29",
"*  c #4A7D2B",
"=  c #4A7432",
"-  c #4E7D32",
";  c #4F7939",
":  c #517D34",
">  c #468224",
",  c #4A8426",
"<  c #4C8926",
"1  c #46822A",
"2  c #4C842C",
"3  c #4E8A2C",
"4  c #518B27",
"5  c #51862D",
"6  c #528C2E",
"7  c #4F902C",
"8  c #53922E",
"9  c #59912E",
"0  c #4E8531",
"q  c #4E8A32",
"w  c #518532",
"e  c #598337",
"r  c #538C32",
"t  c #598E34",
"y  c #56853B",
"u  c #59843F",
"i  c #568C39",
"p  c #5A8D3B",
"a  c #579435",
"s  c #579534",
"d  c #559535",
"f  c #559232",
"g  c #589130",
"h  c #589133",
"j  c #589132",
"k  c #5A9332",
"l  c #589631",
"z  c #589432",
"x  c #599533",
"c  c #589633",
"v  c #599732",
"b  c #589035",
"n  c #589335",
"m  c #5A9335",
"M  c #5A9334",
"N  c #599136",
"B  c #589037",
"V  c #599734",
"C  c #5A9634",
"Z  c #5B9735",
"A  c #599436",
"S  c #5A9537",
"D  c #5B9737",
"F  c #599637",
"G  c #5C9537",
"H  c #5E9736",
"J  c #5D9635",
"K  c #5A9434",
"L  c #579830",
"P  c #579834",
"I  c #579833",
"U  c #5A9931",
"Y  c #599B31",
"T  c #589933",
"R  c #5A9833",
"E  c #5B9934",
"W  c #5A9835",
"Q  c #599A34",
"!  c #5B9936",
"~  c #5A9837",
"^  c #599A36",
"/  c #5C9836",
"(  c #5D9937",
")  c #5C9A37",
"_  c #5F9837",
"`  c #5B9C36",
"'  c #5E9C37",
"]  c #5B9A36",
"[  c #579139",
"{  c #5B9338",
"}  c #5B933A",
"|  c #599438",
" . c #5B9638",
".. c #5B963A",
"X. c #5C9439",
"o. c #5D9638",
"O. c #5E9738",
"+. c #5D953A",
"@. c #5C973B",
"#. c #59903C",
"$. c #5C933F",
"%. c #5F973C",
"&. c #5C933A",
"*. c #5B9938",
"=. c #5A9A39",
"-. c #5B9B3B",
";. c #5D9939",
":. c #5D9B38",
">. c #5F9B39",
",. c #5E9A38",
"<. c #5D983A",
"1. c #5E9A3A",
"2. c #5F9D38",
"3. c #5F9D3A",
"4. c #5C993C",
"5. c #5D983E",
"6. c #5F9F3F",
"7. c #5F9C3D",
"8. c #5D9A3A",
"9. c #618C3D",
"0. c #609837",
"q. c #61953B",
"w. c #60993A",
"e. c #629B3A",
"r. c #609C3A",
"t. c #619F3A",
"y. c #609E3B",
"u. c #609B3D",
"i. c #609C3C",
"p. c #619F3C",
"a. c #639F3D",
"s. c #629E3E",
"d. c #649D3C",
"f. c #619B3C",
"g. c #5FA03A",
"h. c #62A03D",
"j. c #63A13C",
"k. c #64A23D",
"l. c #64A03E",
"z. c #63A23D",
"x. c #5B8543",
"c. c #5D8C43",
"v. c #5F9740",
"b. c #618F46",
"n. c #648E4C",
"m. c #629443",
"M. c #649B41",
"N. c #699D45",
"B. c #659349",
"V. c #6B964F",
"C. c #679D49",
"Z. c #6D9A4C",
"A. c #709D4D",
"S. c #6B9950",
"D. c #719D55",
"F. c #65A340",
"G. c #66A240",
"H. c #65A041",
"J. c #69A744",
"K. c #6AA146",
"L. c #6AA845",
"P. c #6CA149",
"I. c #6DA84A",
"U. c #71A34C",
"Y. c #6FA051",
"T. c #73A453",
"R. c #79A556",
"E. c #74A259",
"W. c #7FB760",
"Q. c #81AD5E",
"!. c #82AE61",
"~. c #89B566",
"^. c #90BC6F",
/* pixels */
"1 1 @ & 0 0 0 r 1 q 1 0 1 2 1 1 q 5.t t , 3 f 3 f ..A f 6 8 f 8 8 8 8 ' y.K 8 ' j.E l.K 8 f T f a f a 7.a =.7 P < 8 8 Y ",
"* 2 & 2 & 2 2 0 r 0 2 2 2 0 0 r 3 2 r t 2 3 ..6 3 6 3 6 3 f f A 8 8 8 8 f ~ 8 ~ T y.j.l.8 ` ~ ~ 7.d -.3 =., f 3 8 T L Y ",
"w 2 & w 1 i i 1 r 1 r w r w 1 r t 2 } n n r n t n r r G G X.w.l.f ~ _ K f <.8 f y.6 f ~ <.3 8 8 f f a f 7.3 =.8 ~ T ' T ",
"1 0 i r r w $.p #.0 r 1 0 1 0 t 0 r 6 3 } r 6 X.X.r h 6 X.6 n n K _ f A 8 f 6 8 _ _ 8 K 8 ~ ~ 3 a <.f A f a f ~ K f ' K ",
"2 2 * 2 p r i r p y r 0 r 2 i t 2 n 2 6 r 2 2 r X.n X.r %.t X.h h w.6 h 8 6 K f _ K 6 l.A K _ y.n A A f r f 6 <.A f <.K ",
"& w 2 2 2 & & w 0 r 0 w r 0 i r r r 2 t 2 2 t 6 6 r r r r X.} n 6 d._ G G h _ 8 8 K <.A K ~ y.8 6 f <.A ..<.f s.H.s.s.y.",
"r r 2 2 2 2 2 1 r 0 1 2 2 2 q r , # 1 f r 6 ..6 6 f 6 n r X...<.6 A l.A _ 8 8 8 y._ f K.f 3.8 ~ _ y.a _ a ~ 8 j.A K 8 f ",
"t r } r r 2 t 2 r 2 q r q r 1 r f 3 f A u.n r 6 n n r r r n ..X.<.8 H.K _ 8 8 j.y.~ j.H.8 f f j.f _ 8 ~ 3.8 8 f A _ f 3.",
"3 r 1 6 r , r r , n ..3 3 , q 1 3 3 A A a f f f 3 3 f f 3 f f 3 s._ _ K 8 _ 8 8 8 8 j.8 7 ' 8 f ` ~ ~ ~ 8 8 ~ ` 3.~ f 8 ",
"# 3 q n r , 3 3 3 f a r r r n r , , 3 3 3 6 3 , 3 6 n r , 3 f f f K K K 8 K < 8 8 ` f ` T 3 I j.I j.' g.8 ~ ~ 8 ~ ' ` f ",
"& 2 2 2 2 # 1 3 2 , n 1 ..2 ..r f 6 r 3 6 A A ..3 a f n ..3 > f 6 G J _ y.E < _ ~ _ 8 l.' 8 l._ L.l.j._ _ 8 _ f ~ K f 8 ",
"0 1 0 2 2 2 1 r r r r r r r t r 3 r r 3 3 ..5.M.5.n n ..r r r 3 6 K J _ G K 6 K 8 y.l._ _ f f l.A a <.~ H.f G 6 y.f 8 K ",
"y 0 w 2 w i r #.r 0 r 1 r 2 i r 2 , 6 2 2 r t t r } t 2 r } B 2 G X.0.d.G u.u.G K.h s.s.<.s.w.d.G H.A A 6 H.s.A s.~ f 6 ",
"y 0 w * - 0 w y w y 0 p 0 i y p $.i i r i #.p p p 2 p m.y } m.r { { { 0.r 0.M.r r u.M.u.u.0.X.M.n M.X.q.n u.n 6 X.M.u.h ",
"x.c.b.c.c.x.y y y p p c.m.p m.$.m.p p w i p p p B.$.p m.m.$.v.Z.q.0.{ q.p q.M.{ q.M.M.N.N.P.P.{ M.M.M.q.N.{ M.M.N.P.N.X.",
"- - - - - - * - @ * * 0 w * 0 * w 2 0 0 0 0 2 w w i i i p $.p p { q.t q.q.q.q.t q.n t t { t t { 5 } t { { t t r t 6 5 r ",
"* * * * * 2 * 2 w 0 w 0 * * 2 w 0 w r w 2 2 2 0 * 2 r t } } n n { h t { 0.0.0.X.{ n { G { t t h { r 5 5 r n { { t t t r ",
"w w 0 2 * * * & * 2 2 2 * 2 2 w 2 2 5 5 2 2 r r 6 r r r r r h n G G { G 0.0.G G { h k 0.w.X.0.f.G h 6 6 t { { { X.X.G G ",
"1 1 * 1 1 * 1 1 * * 1 2 1 1 0 w 2 2 5 r r r r r t t r r 6 r h A G J k k J J h h G k k 0.0.G 0.d.G n t t n { n t 6 5 5 5 ",
"& & * * * * 1 1 * 1 0 0 2 1 2 2 0 6 r r r r r r t t r r 6 6 r h G k h k J G J h w.G k G J 9 h J n n h h h t r 6 r r r t ",
"0 w 0 2 1 * & & 2 0 w 0 2 1 2 1 2 2 r r r r 6 6 6 r r r r 6 r f G J J J _ w.0._ w.G J J h 6 6 9 n A G G h 6 6 6 h h n A ",
"w w 0 0 2 2 2 2 0 w w w w 2 2 2 2 2 2 r t n r r 2 6 r n h f r r h h h J G w._ _ G J J G G h h J X.<.w.X.n h f h 6 6 r h ",
"2 2 2 2 2 2 0 0 2 0 r r r r r r 1 1 , q t B n r 3 r n ..n f f f h 8 6 8 h K K h h h K 0.w.G J G X.w.w.G h h h n G G <.w.",
"2 2 2 2 2 & & & 2 2 r t t r r t , , , q t n r 3 r n ....n f f f A h h h h h h 8 h h K w.w.J h h G X.X.G 6 6 h n 6 6 6 r ",
"@ 2 0 r r 2 2 2 1 2 1 2 2 0 0 0 , 2 3 r r 6 3 2 3 3 6 6 r r f f f f ~ s.s.K f ~ K 8 8 f _ _ K 8 A A A A A A A A f f f f ",
"2 r r r 0 1 2 2 1 2 2 0 0 r 0 0 3 q r t n n r r r r 6 6 r r r f f 8 K y.<.K f _ A f 8 f ~ _ _ K A G A ~ ~ <.<.<.A A f f ",
"q r r q 2 2 1 1 0 q q q q q q 0 r r r r r n n n n n n n n n n f A f ~ ' _ A ~ 3.<.K 8 8 K _ 3._ <.<.<.<.<.<.=.=.A A a a ",
"2 2 1 1 1 2 2 q r r r r r q q 0 q q 3 3 3 6 r r n n n n A A A A ~ T T K A A _ y.~ K f f ~ ~ _ ~ ~ ~ ~ ~ ~ A A a a a f f ",
"1 1 & & 1 2 q r r r r r r q q 0 q 3 , , , , 3 3 6 6 r r f f n A f f 8 8 8 8 K _ f f f K A A K f f f f f f f f 8 f f f 8 ",
"2 1 & # 1 1 2 2 q q q q q q 2 0 r q 3 3 2 3 3 3 3 3 6 6 r f n f 8 K f 6 6 f A ~ f f K A A f f 8 8 8 f f f f 6 6 f 8 6 6 ",
"q 2 1 1 1 2 2 2 2 2 q q q 2 2 2 q q 6 6 r r r r 6 6 6 r r f f f K _ T 8 6 f T T T T T T f 8 8 f 8 8 f f f f f 8 8 6 6 6 ",
"2 2 1 1 2 2 0 2 2 2 2 2 0 2 2 , 2 3 6 r r n n n 6 6 6 6 6 6 6 6 f _ ~ 8 6 8 K 8 y.' T K 8 8 f K 8 8 f K A A f f 8 6 6 6 ",
"2 2 3 3 q q 3 3 3 3 3 3 q q q , r 3 3 3 6 r r 6 3 3 6 6 3 3 6 f f ~ =.8 3 f 3.3.3.` I f I f f 8 7 8 f T P f 8 3 7 7 8 f ",
"q q 2 2 2 2 , 1 q q 3 q r r 3 , 6 3 3 3 6 6 r 6 3 6 6 6 3 3 6 f f ~ ~ 8 6 f K K K f 8 8 8 8 8 8 8 8 8 8 8 8 8 8 I f a f ",
"3 2 2 2 2 2 2 2 r 6 6 r r 6 5 2 6 8 f 8 8 8 f f 6 8 f 6 3 < 3 6 6 h K 6 6 6 6 6 9 8 6 6 8 K K K 8 8 8 8 8 8 f f P P f f ",
"& * 2 0 r r r w 5 r 5 r r r 5 2 6 6 6 6 3 6 f f A A f 8 3 , 3 3 6 h h h 8 8 6 6 J 9 6 6 9 J G _ 8 8 8 8 8 8 8 8 8 8 8 8 ",
"X @ & 0 0 0 2 * 2 2 2 5 w w w r , 1 1 1 1 1 3 q d d d q q 3 3 3 r 6 h J G J h 9 G J 9 9 9 J J J 8 9 9 9 8 6 4 < , < 6 6 ",
"& & * 0 0 1 * & * 1 2 2 0 5 w r 2 1 1 1 1 2 q q q q q q q q q r f 6 6 K G h 9 h _ G h 9 K J K h 6 t h h t 6 6 , 1 , 6 6 ",
"& & 1 1 1 1 1 & 2 2 2 2 2 2 5 r q 0 0 0 0 q r r 0 q 0 q q q i r f 3 3 f f 8 6 6 a a f f A K f 8 r r r r r r r r 2 6 r r ",
"# # o # & 1 , 2 2 2 3 2 2 2 3 6 r q 1 1 0 q r r r q q q 0 q 0 q n 3 < 3 f 3 3 3 3 3 3 8 f f 3 3 r r 6 q r r n B q r 3 3 ",
"1 1 # # 1 1 , 1 1 , 1 , 6 6 6 6 , , 1 > 1 , 2 6 r 6 r r 6 3 6 3 3 3 r 3 r r , 3 r 3 f 3 r f 3 n f d f 3 3 n a f 3 3 3 3 ",
"# & # # O O & 2 6 2 2 5 5 6 t 6 , 6 6 6 6 6 6 h 6 6 6 6 3 2 1 > r 3 q 1 , , , r 3 3 r , q r r r r 8 3 3 3 f a =.6 3 < , ",
"* & w y * * * @ w w i t 5 5 t r O O O # # # , , h r 6 t 6 n r 6 r r } t t 5 w i i p p i i r i 2 6 6 6 h h 6 6 6 h r 6 6 ",
"$ : - $ : % @ w + $ * w w w w y r r 5 t r t X.n r r 6 t 6 r r r r r r r 5 2 w p p $.w r w 2 w 5 5 5 6 5 t 5 t t q.t 6 5 ",
"x.; = $ = : : u V.D.V.S.E.D.Z.T.C.M.t t 2 r t r r t i } r r 2 2 r t 5 t 5 6 t q.q.N.q.U.N.N.N.Z.Z.A.Z.9.w % * : e : % % ",
"n.u u u x.c.c.c.b.B.y w y : * p r r t v.} %.} t } r 2 r i } t 2 r t 6 { 6 t { { 5 t } N.M.M.{ M.A.Q.Q.~.R.Q.!.^.Z.Z.Z.Z.",
": B.m.w m.c.w T.w 2 2 2 & & 2 t X.r r r # 6 3 r r 1 1 # 3 3 r 3 r 6 2 2 , 6 n 6 r n X.r 6 r n X.{ X.n { 6 r t M.N.q.p 2 ",
"m.p p i i } 2 2 i & 2 r 6 r { 6 6 6 s.H.6 ..3 6 , 3 A 3 3 1 n X.A r n f ..f <., , r u.2 3 2 2 , r 1 , 3 X.6 r r <.X.n 3 ",
"6 r 6 r t r 2 i 2 1 & r 1 n n n r , r 3 3 A 3 6 1 6 # 6 2 } r %.1 r n r f 3 1 6 2 2 r X.2 } 1 r 6 n 6 6 6 2 n 2 A r 3 6 ",
"f 3 H.3 q r w 0 0 r B 2 2 t   3 3 > 1 , A f M.3 O n u.n } 2 # r r } M.K.1 r u.r 2 2 r 2 } M.r & 2 2 2 } 6 1 2 X.f f r f ",
"a 3 , f , 1 @ 1 & 1 w 2 2 n n M.A 6 r , > 6 A 1 5.f u.r r r t 2 2 1 } 6 r > G 6 r r r } r 2 2 1 r t n # 1 2 r 3 3 f f 6 ",
"f f 6 2 n # r w * 2 } 2 B 1 3 , f 3 3 6 # , 6 A n r t 6 6 r } 2 r r } 2 w.2 3 6 6 2 K.i 1 2 2 6 6 X.2 n 6 r f , 3 f n 2 ",
"1 1 n 1 # # 2 0 &   2 %., <.3 3 3 A 6 , A 3 u.r 3 1 # 3 1 6 }   & # n # , 6 r 6 r 2 # 6 t r n # f n r n <., n 3 3 3 r 1 ",
"3 1 t , &   r & 1 r 2 O 5.3 r A 6 A r > 6 , 3 > 3 M., 1 1 1 2 } } 1 X.2 , , 6 > 2 X.# t 2 1 1 u.n <.r 6 , f 3 , 6 1 3 # ",
"3 ..1 2 r 0 r X 1 } 2 1 f # A , n 3 f ..f 6 1 s.u.A f 2 3 6 r n 2 2 2 r 6 r 6 6 2 X.1 & 2 2 u.n 6 3 6 6 A 6 3 1 f > r 3 ",
"%.3 r   W.2 & r 1 X.6 t , 6 f , 3 6 s.A f , 3 , 6 > u.3 , 1 r r 2 t u.r w.# G # r & n t   r 6 6 3 K 3 A f , 6 , X.> n r ",
"r & r 2 r @ w & r r 6 6 , , . 3., A n n 3 > 3 3 <.n , r r f 2 1 5 2 2 r f 6 6 A 5 # 2 r 2 6 6 > A K f 3 f f > A 3 3 2 3 ",
"2 & & r 2 2 2 * # 2 r n 6 A , <.A 7., f a <., 6 > , , 1 , 6 3 1 n 6 2 2 6 6 6 G 6 2 2 & 1 r X.M., < 8 f 3 <.6 3 6 6 3 3 ",
"& & @ w & * @ * & 2 r r 2 f < 8 8 3 3 7.. , > f r 1 6 A n > , A 6 2 2 6 h 6 6 2 2 r 2 1 6 t r d.8 _ f , 3 8 3 3 3 3 3 3 ",
"  @ X 1 1 * 1 r 2 1 2 , O 6 3 f <.> , , , r O 3 3 u.I.3 3 6 A 2 6 2 2 6 6 f 6 2 n t 2 # 6 f 2 f y.6 K 8 K , A < , , 2 3 "
};
