/* XPM */
static char *bd874ef919cd4a79b98affc3d8b6bfa776Ne95J1fOeEr9TW[] = {
/* columns rows colors chars-per-pixel */
"60 60 232 2 ",
"   c #070A00",
".  c #160900",
"X  c #191202",
"o  c #0E1F00",
"O  c #230300",
"+  c #290805",
"@  c #2A1609",
"#  c #371608",
"$  c #2C1913",
"%  c #391B14",
"&  c #1E2500",
"*  c #282509",
"=  c #332507",
"-  c #3B2415",
";  c #382819",
":  c #363518",
">  c #2C2A12",
",  c #3C3926",
"<  c #531C08",
"1  c #471D11",
"2  c #4A1E0B",
"3  c #5B2B0E",
"4  c #4D2D1D",
"5  c #472416",
"6  c #542715",
"7  c #50391F",
"8  c #6B3A1F",
"9  c #60281B",
"0  c #492B24",
"q  c #532E28",
"w  c #4C3B2A",
"e  c #473628",
"r  c #593829",
"t  c #593D34",
"y  c #693525",
"u  c #723A29",
"i  c #653D36",
"p  c #394314",
"a  c #3D511E",
"s  c #3D751D",
"d  c #3E7B1D",
"f  c #3F5026",
"g  c #3F7722",
"h  c #41461E",
"j  c #417C1E",
"k  c #474728",
"l  c #55462A",
"z  c #445626",
"x  c #4D4735",
"c  c #584738",
"v  c #555438",
"b  c #51532C",
"n  c #68442A",
"m  c #78452B",
"M  c #684739",
"N  c #7C4C3B",
"B  c #794835",
"V  c #76523E",
"C  c #6D513C",
"Z  c #447C23",
"A  c #467D29",
"S  c #497E2B",
"D  c #467B26",
"F  c #556934",
"G  c #4C7D33",
"H  c #567A36",
"J  c #637B3B",
"K  c #5A5846",
"L  c #5A4941",
"P  c #724C41",
"I  c #68574A",
"U  c #725D4F",
"Y  c #795749",
"T  c #665D54",
"R  c #775D56",
"E  c #604742",
"W  c #776659",
"Q  c #797757",
"!  c #6D6F4D",
"~  c #7C6C61",
"^  c #7A7463",
"/  c #834E36",
"(  c #82513A",
")  c #875948",
"_  c #8C624B",
"`  c #94634C",
"'  c #846554",
"]  c #87685A",
"[  c #986453",
"{  c #966858",
"}  c #8E745E",
"|  c #A56D5C",
" . c #A4725D",
".. c #876C62",
"X. c #8A776A",
"o. c #987666",
"O. c #867A73",
"+. c #A77968",
"@. c #B17B68",
"#. c #A97F71",
"$. c #3B8919",
"%. c #44851E",
"&. c #468224",
"*. c #498426",
"=. c #4C8B26",
"-. c #478129",
";. c #4B842B",
":. c #4E8A2C",
">. c #458B26",
",. c #518C26",
"<. c #53862F",
"1. c #518C2D",
"2. c #598F2F",
"3. c #4D912B",
"4. c #4B9729",
"5. c #54922E",
"6. c #54982D",
"7. c #59952E",
"8. c #4E8531",
"9. c #4E8A31",
"0. c #528632",
"q. c #538C32",
"w. c #5A8C34",
"e. c #5A833C",
"r. c #568D39",
"t. c #5C8B3B",
"y. c #578338",
"u. c #569135",
"i. c #569232",
"p. c #589632",
"a. c #589337",
"s. c #599635",
"d. c #599435",
"f. c #569933",
"g. c #5A9833",
"h. c #5B9936",
"j. c #5A9835",
"k. c #5C9936",
"l. c #5C9A35",
"z. c #569339",
"x. c #5A9539",
"c. c #5B943A",
"v. c #5D9A39",
"b. c #5F9D39",
"n. c #5D9A3A",
"m. c #57993F",
"M. c #4E9630",
"N. c #60873B",
"B. c #609D36",
"V. c #609E3A",
"C. c #619F3D",
"Z. c #619D3C",
"A. c #639739",
"S. c #5EA238",
"D. c #63A13D",
"F. c #63A23C",
"G. c #65A43B",
"H. c #5E9441",
"J. c #5E9A40",
"K. c #5F8846",
"L. c #638543",
"P. c #648D44",
"I. c #658449",
"U. c #698C4B",
"Y. c #678949",
"T. c #73854D",
"R. c #629542",
"E. c #629D42",
"W. c #67944B",
"Q. c #6E8B50",
"!. c #77885C",
"~. c #6B9351",
"^. c #789759",
"/. c #709A4E",
"(. c #65A241",
"). c #69A543",
"_. c #6AA648",
"`. c #71A64C",
"'. c #7C9663",
"]. c #7C8864",
"[. c #7FB760",
"{. c #868769",
"}. c #849F6A",
"|. c #869666",
" X c #8A8A72",
".X c #968A77",
"XX c #969876",
"oX c #928F6E",
"OX c #A78A77",
"+X c #B48374",
"@X c #BA8B77",
"#X c #A7987A",
"$X c #AE836D",
"%X c #88A46B",
"&X c #94A36E",
"*X c #95A778",
"=X c #91BC75",
"-X c #A1A573",
";X c #C49079",
":X c #969F84",
">X c #B6988A",
",X c #B69B92",
"<X c #AC8F80",
"1X c #9CAA85",
"2X c #9CB486",
"3X c #A8B68C",
"4X c #A9BA96",
"5X c #B4B999",
"6X c #AFAB93",
"7X c #B9A8A2",
"8X c #C99B8B",
"9X c #D39890",
"0X c #C3A99B",
"qX c #D6AA97",
"wX c #DBB3A9",
"eX c #C8B8AE",
"rX c #E8BAAA",
"tX c #A5C18E",
"yX c #BACCA4",
"uX c #C2D3AD",
"iX c #D0CCAE",
"pX c #F5C8B7",
"aX c #E8D8B5",
"sX c #F1D5B9",
"dX c #EFC0AE",
"fX c #D0F2B9",
"gX c #DDCEC9",
"hX c #FCD8C4",
"jX c #F3D2C7",
"kX c #DBFFC1",
"lX c #FAE1D7",
"zX c #FFEDE0",
/* pixels */
"S 8.D A 8.8.;.0.;.0.;.8.;.;.;.;.9.n.r.r.;.:.u.:.i.x.x.q.1.i.i.i.i.1.5.V.Z.p.i.n.V.h.F.p.5.i.g.p.i.5.i.Z.i.n.5.h.=.5.5.g.",
"S 8.A 8.D ;.;.;.r.8.;.;.;.8.8.r.8.;.q.r.;.:.x.q.:.1.:.q.:.i.i.s.5.5.i.i.p.k.i.k.g.V.F.F.5.k.h.h.V.5.n.:.k.*.i.1.5.g.p.g.",
"0.8.A 0.S r.r.;.q.;.0.0.0.0.;.0.r.;.u.u.u.q.u.u.u.q.q.s.s.x.n.(.i.s.k.p.i.n.5.i.v.5.5.g.k.=.5.5.5.5.i.i.b.:.h.5.h.g.b.g.",
";.8.q.0.0.0.c.z.z.;.0.;.8.;.8.r.8.9.:.:.x.q.<.x.s.1.i.1.x.1.s.s.p.k.i.s.5.i.1.1.h.k.5.p.5.h.h.=.i.k.5.s.5.i.i.h.p.i.v.p.",
"8.;.;.;.z.0.q.0.u.r.0.;.9.;.r.q.;.u.;.:.q.;.:.q.x.i.x.q.n.i.s.i.i.V.1.p.5.1.p.i.h.p.1.D.s.p.h.v.a.s.s.i.5.i.5.n.h.i.b.p.",
"Z 8.;.;.;.Z Z <.;.0.;.0.0.8.r.9.9.q.;.u.;.;.u.:.<.q.1.q.q.s.s.s.1.V.k.k.s.i.k.5.5.s.n.h.i.h.v.i.1.i.n.h.h.n.i.Z.).Z.F.v.",
"0.0.;.;.;.;.;.-.<.;.;.;.;.;.0.q.;.Z -.u.q.q.x.q.<.i.<.i.1.x.x.n.1.p.F.p.k.5.5.1.Z.k.i.).i.n.5.h.n.Z.a.n.a.h.i.D.s.p.5.i.",
"u.q.z.0.0.;.r.;.q.;.9.q.9.0.;.q.u.:.u.x.Z.a.q.q.i.i.q.q.q.i.s.s.n.5.F.p.k.5.5.Z.V.h.D.(.5.i.i.D.i.n.i.h.b.i.5.i.p.k.i.v.",
";.q.;.<.0.;.q.0.;.x.x.9.q.-.;.;.:.;.x.x.a.u.q.u.:.:.i.u.:.q.u.:.V.V.k.i.p.n.1.i.5.p.).5.:.v.p.5.h.h.h.h.5.5.v.n.V.p.h.i.",
"Z ;.<.<.u.;.0.<.;.q.q.x.0.9.n.q.-.-.:.:.q.:.q.;.:.<.u.i.*.:.a.i.i.s.k.s.i.i.:.s.5.D.i.h.V.:.5.).s.(.Z.(.i.v.v.i.v.v.D.5.",
";.-.q.-.;.Z -.9.:.9.r.:.u.:.x.u.u.:.x.:.q.n.x.x.:.u.u.u.x.;.&.i.i.s.s.n.s.s.1.p.s.h.i.V.h.h.).i.).D.D.h.h.5.g.5.h.5.5.1.",
";.;.q.;.0.;.;.9.:.q.:.:.;.u.-.u.:.q.:.:.q.q.E.n.E.a.a.x.q.q.q.1.i.s.s.n.n.n.i.5.i.s.D.F.h.i.h.D.k.h.v.s.D.5.k.5.F.i.i.p.",
"0.;.-.;.0.0.q.q.q.;.q.:.:.;.q.<.:.-.<.;.:.q.q.a.<.a.q.;.q.a.q.;.i.n.n.n.s.n.n.s.D.5.Z.D.k.k.p.F.p.G.p.i.1.F.V.7.i.5.p.=.",
"0.0.;.S -.;.9.q.:.u.;.a.:.:.q.1.x.u.;.<.u.:.x.q.u.:.a.n.u.x.n.q.i.n.a.a.i.n.Z.i.1.D.F.k.b.V.k.b.5.V.k.V.g.k.5.=.F.V.D.5.",
";.0.c.0.8.;.-.;.;.u.q.q.i.1.1.i.s.1.:.;.q.q.u.q.x.u.q.q.x.q.<.n.u.x.1.q.:.i.s.1.s.5.5.b.k.V.G.=.5.5.p.h.F.=.5.b.B.g.b.5.",
";.;.r.S 0.r.;.S ;.-.c.x.:.n.1.n.;.1.1.q.a.q.c.:.i.s.5.:.a.c.r.t.P.W.R.c.:.:.d.s.:.h.i.:.i.i.5.k.5.k.n.F.V.5.5.F.b.G.).5.",
"c.;.0.0.8.S H.r.;.c.;.q.n.1.s.q.(.:.q.q.a.z.z.z.:.f.6.h.a.y.I.{.v |.U.t.i.k.g.2.1.V.n.n.i.v.7.p.2.i.n.V.p.k.g.).5.G.G.g.",
"r.z.r.r.;.Z -.r.z.-.:.q.u.i.;.-.a.;.<.u.q.m.m.m.n.3.6.i.H.H ].* I Q a e.a.p.,.B.p.k.Z.i.h.i.i.2.i.;.p.5.1.5.`.g.5.G.G.g.",
"0.;.Z ;.Z ;.S Z ;.;.q.i.u.:.:.q.1.1.i.1.=.q.a.h.D.:.s.c.e.f > O.;  Xb *X0.i.6.5.B.B.n.i.5.i.s.i.s.(.i.1.n.5.5.V.k.V.v.g.",
"0.;.0.;.Z r.u.:.:.i.q.1.s.i.n.d.,.1.i.=.*.;.i.x.q.;.t.H !.  f ; - w ..Q ~.0.).S.F.V.v.h.1.5.i.:.h.1.s.B.*.i.p.V.h.k.b.v.",
";.r.z.0.;.<.-.q.a.;.i.:.*.5.p.=.,.2.1.5.=.=.1.x.r.t.L.!.& * X @ - - % .X*X/.(.l.b.5.v.1.5.=.f.6.v.k.i.=.s.(.n.Z.h.n.b.v.",
"0.r.;.x.<.r.-.:.x.i.i.s.i.p.s.7.1.2.:.v.:.1.:.r.0.y.'.* * @ . c I 0 # ' XX%Xt.Z.S.l.l.5.1.=.3.=.5.n.i.p.:.:.1.i.i.v.V.V.",
"0.;.S 0.Z ;.;.:.:.u.&.:.s.s.5.5.2.1.1.n.5.5.s.z.P.I.k w - O @ t o.o.r o.OX#X|.P.=.6.5.D.n.F.f.l.F.p.=.n.s.x.s.:.i.Z.V.p.",
";.z.0.8.z.r.:.Z :.<.n.q.&.n.:.s.Z.i.n.a.h.=.Z.r.P.z x 0 q % O # 5 5 5 o.o.o.{.^.R.b.k.k.Z.D.F.G.G.k.).1.i.1.n.x.1.(.Z.5.",
"0.r.8.;.0.;.;.c.q.r.q.:.q.i.1.x.:.9.z.:.n.i.E.r.F : U 0 q t q # # y _ ) [ { X.3XY.c.w.1.n.).G.F.V.5.v.5.a.s.q.u.;.).n.F.",
"r.8.8.;.;.r.c.;.:.;.;.:.0.q.;.q.z.z.c.r.q.a.r.y.F k t i 0 i 4 _ B ` B @.B { R W &Xe.A.C.5.g.F.:.F.F.5.5.n.h.x.u.q.n.p.p.",
"8.c.S ;.c.c.-.c.0.9.0.;.;.a.8.9.9.9.0.r.0.J.W.%Xk > @ + r P r n 8 / / u y # ...X! T.N.i.7.7.:.(.5.s.p.i.i.s.i.).i.s.V.i.",
"8.8.;.c.Z ;.-.;.a.9.r.;.;.q.9.q.:.>.:.0.;.S K.!.b e % % O O 2 3 3 < y < 8XM I e ! p y.,.5.6.6.h.h.h.D.n.i.i.=.n.B.s.k.k.",
";.r.8.r.0.r.;.q.q.-.q.:.0.;.;.9.*.i.u.0.r.e.%XQ e ; O wXq 6 2 u m B u y P ' ; l b o /.a.=.G.:.a.h.i.1.5.h.k.(.1.s.5.5.n.",
"S ;.;.;.r.<.0.u.:.:.r.;.9.;.0.q.:.h.:.1.0.L.&Xv .XE + ,X5 6 6 3 8 u y ) M 0X@   & F t.x.p.f.p.n.v.n.h.5.i.v.(.=.1.5.5.n.",
";.r.x.:.;.2.z.1.:.u.:.;.;.0.a.x.1.5.=.i.0.J XXe $ + % t 5 6 N B B u n i r #X= * I.e.0.:.z.i.g.,.i.n.F.h.k.D.b.v.k.5.s.p.",
";.<.-.1.<.2.;.s.;.:.d q.q.;.9.n.i.g.f.q.H T.5Xx L $ O 5 r N y N B ) N M 1 ) = T.U.z.z.9.z.s.1.7.5.V.1.V.).i.=.5.p.1.Z.:.",
";.;.;.q.;.-.-.<.*.*.:.E.q.E.E.q.m.a.z.;.L.^.3Xx c e % 5 i 6 9 | [ _ @XqXwXo.l Q N.:.3.>.f.i.k.i.k.F.p.1.b.5.V.p.i.k.p.n.",
"0.0.A <.;.<.q.<.:.q.s.q.n.u.;.q.E.R.W.^.}.XX1Xe > $ % # 1 N @.;X@X@XrXpXdXsXiX-XN.a.>.4.3.g.g.d.V.G.k.).5.k.*.n.p.n.i.i.",
"r.<.Z q.q.;.<.;.;.s.1.n.E.J.n.0.I.tX2X{.{.oX.Xx c ; w r 6  .qX$X[ 8XdXpXpXhXsX5XJ /.;.6.g.G.5.6.F.i.i.(._.).:.:.1.d.a.n.",
"0.;.Z <.<.;.;.Z :.1.x.x.a.;.x.R.fX4XK K ^ ^ U c eXU c C V $X8X .u ` @XpXpXrXsXiXJ R.q.1.,.g.F.k.s.F.i.v.i.1.i.1.s.n.a.n.",
"q.<.q.;.;.i.q.;.:.-.q.x.Z q.0.fX4XT K W ~ W I X.zXo.5 4 Y +.+X@.(  . .qXhXpXsXaXJ t.i.5.d.w.<.w.C.Z.=.s.h.:.n.1.i.q.;.i.",
"q.:.x.1.:.u.<.q.x.;.c.n.z.q.0.kX4X, , e 0 w c ,XlX<Xr 4 ' #.+.{ m ;X| [ 9XrXqXiX&XP.<.i.<.w.0.0.-.s.s.;.:.u.n.j i.u.1.x.",
":.Z <.i.u.;.-.<.E.q.;.:.;.0.r.=XuXK X . ; L I ..lX0XW M ] OX+.) / @.@X@.+XrXhXaX&X^.H w.R.R.r.r.n.a.5.D.:.s.:.i.i.s.:.1.",
"1.*.:.u.x.q.u.x.u.;.c.0.c.z.r.e.uX X, , ; c X...lX,XU t t ] o.N ( ) { +.+X8X>X#XQ |.Y.e.t.r.i.3.:.=.5.i.i.p.i.:.*.s.s.n.",
"i.j ;.(.-.x.-.9.u.a.z._.;.c.;.P.uX5X: x $ e W R iX7Xt I E M ' V _ n { OX+X{ Y 5 e z U.t.r.h.4.M.5.g.i.F.v.5.5.n.i.p.p.1.",
"=.;.d x.:.q.q.q.r.q.z.;.;.;.r.P.'.uX, v T I W T gX7X~ 7XgX0X.Xr r r n OXo.Y 4 c b z P.w.i.6.$.4.5.=.=.1.5.5.%.1.s.k.&.Z.",
";.:.a.Z q._.Z :.9.0.;.;.r.r.r.G I.2Xf : , ; x O.7XO.c O.,X,X..M ' OX.Xc w l : p Q.N.c.p.k.,.6.l.b.G.5.l.F.5.5.=.g.F.p.5.",
";.q.-.:.n.q.-.-.s ;.Z ;.S r.;.q.y.Y.%X3X1XQ  XuX6X^ T T X.~ W W U w : I oXh F L.w.C.k.G.B.,.v.p.5.5.F.g.B.=.=.=.=.V.F.p.",
"a.-.;.;.Z ;.-.0.-.;.;.-.Z ;.-.a.8.8.G H Q.}.1X4X4X1X1X:X1X.XW v  XXXoX}.I.H w.1.p.h.1.p.A.C.B.1.1.5.F.l.k.5.5.p.5.=.k.V.",
"d q.u.0.;.u.S 9.q.;.0.;.;.:.Z :.:.a.r.R.t.P.L.~.U.'.}.2X4XyX*X!.5X3XQ.U.S x.n.5.%.6.5.d.w.,.q.:.5.l.5.F.1.1.v.).k.5.1.:.",
"-.x.;.;.a.q.;._.Z Z -.;.Z -.;.u.h.:.1.<.Z q.<.t.0.8.8.G G P.~.W.P.0.0.S <.<.q.i.3.f.3.1.q.;.b.z.f.3.i.p.=.5.5.).s.).:.&.",
"x.u.u.9.q.a.;.;.0.-.-.;.r.q.x.q.M.=.D.(.s.q.q.:.;.>.z.9.9.9.9.H.q.x.i.a.s.q.B.-.:.:.b.*.<.;.:.*.i.&.*.5.s.1.i.1.D.5.Z.;.",
":.i.:.q.q.0.;.r.;.;.A 0.-.a.u.u.i.=.q.:.:.s.:.1.-.1.Z :.;.z.0.H.;.q.a.q.i.:.-.,.;.;.:.x.;.z.-.q.:.a.:.:.<.*.a.;.s.q.:.1.",
"i.:.(.:.9.q.0.8.8.0.a.;.;.r.s :.:.&.-.*.s.i.E.:.j i.Z.a.z.;.Z 0.0.z.E.).-.q.Z.q.;.;.0.;.z.E.q.Z <.;.;.z.<.-.;.x.i.i.q.i.",
"a.:.*.i.;.-.Z ;.S ;.0.;.;.u.u.E.s.1.q.;.&.1.s.-.n.i.Z.q.q.0.r.;.;.;.z.<.q.&.d.,.q.q.0.c.q.;.;.-.q.a.a.Z -.;.q.:.:.i.i.<.",
"i.i.1.;.u.Z 0.0.S ;.z.;.u.-.:.;.i.:.:.<.Z *.1.s.u.1.q.<.0.0.z.;.0.0.z.;.B.;.:.<.<.;.).r.-.;.;.<.<.x.;.a.<.q.i.*.:.i.a.;.",
"-.-.u.-.Z Z ;.8.Z s ;.c.;.n.;.;.:.s.1.;.s.:.Z.q.:.-.Z :.-.<.a.s Z Z z.-.;.<.q.<.q.<.Z <.r.0.a.Z i.a.q.a.n.*.i.:.:.:.q.-.",
":.-.u.;.Z s 9.S ;.0.;.j n.:.q.s.<.s.q.&.<.;.:.&.:.E.;.-.-.-.;.z.z.;.x.;.*.;.<.&.<.x.Z r.;.-.-.B.a.n.q.1.*.i.:.*.<.-.:.Z ",
":.x.-.;.0.8.0.g ;.z.;.-.u.&.s.*.u.:.i.x.i.1.-.Z.Z.x.u.;.:.<.q.u.;.;.*.q.2.2.<.<.;.x.-.Z ;.;.Z.i.1.:.1.1.s.1.:.-.i.&.q.:.",
"c.:.0.s [.;.Z 0.;.x.<.r.;.1.i.*.:.1.Z.s.i.*.:.;.q.&.E.:.;.-.q.q.;.r.Z.q.B.Z d.Z <.A a.r.s q.,.2.:.p.:.s.i.*.1.*.x.&.u.q.",
"0.Z 0.;.0.Z 0.D q.0.<.<.*.*.d v.*.s.u.u.:.&.:.:.n.u.*.q.q.i.;.-.<.;.;.q.i.<.<.s.;.Z ;.0.;.<.<.&.s.p.i.=.i.i.&.s.:.:.;.:.",
";.Z Z 0.-.S ;.S Z ;.q.a.q.s.*.n.s.b.*.i.s.n.*.1.&.;.-.-.*.<.:.-.a.<.;.;.,.,.1.d.0.;.;.Z -.0.x.E.*.=.5.i.:.n.1.:.1.<.:.:.",
"S S Z 0.D S Z S Z ;.q.q.;.i.=.5.5.:.:.b.d *.&.i.q.-.<.s.a.&.*.s.<.;.;.1.i.2.,.;.;.0.;.-.0.r.q.C.i.k.i.*.:.5.:.:.:.:.:.:.",
"s Z g ;.;.S ;.0.;.-.;.*.j 1.:.i.n.&.*.*.;.q.j =.:.Z._.:.:.1.s.;.<.;.;.,.2.q.2.;.a.u.;.Z 0.i.;.i.V.1.s.5.p.*.s.*.*.*.;.:."
};
