/* XPM */
static char *e69b4a6a44c6450cd870ca59587c3e17MY5jsrQCICcKmWcc[] = {
/* columns rows colors chars-per-pixel */
"60 60 170 2 ",
"   c #0D0D0B",
".  c #100F0D",
"X  c #151513",
"o  c #181715",
"O  c #161815",
"+  c #191816",
"@  c #191718",
"#  c #1D1D1B",
"$  c #201913",
"%  c #201E1C",
"&  c #21211F",
"*  c #2C221B",
"=  c #392719",
"-  c #3B2B1E",
";  c #242423",
":  c #292725",
">  c #292927",
",  c #2C2C2A",
"<  c #372A21",
"1  c #302F2D",
"2  c #2E302F",
"3  c #3D3125",
"4  c #31312F",
"5  c #3A3329",
"6  c #353433",
"7  c #383735",
"8  c #393937",
"9  c #373639",
"0  c #373B3A",
"q  c #3D3C3B",
"w  c #48311F",
"e  c #463629",
"r  c #4A3C2F",
"t  c #443B31",
"y  c #4D3F34",
"u  c #403F3D",
"i  c #4E4135",
"p  c #41403F",
"a  c #4E453C",
"s  c #524235",
"d  c #5D4636",
"f  c #54453A",
"g  c #50493F",
"h  c #5A4A3C",
"j  c #624D3C",
"k  c #694F3E",
"l  c #444443",
"z  c #484745",
"x  c #494946",
"c  c gray30",
"v  c #4C4C4C",
"b  c #4E4E4C",
"n  c #4F4E4C",
"m  c #4F4F4D",
"M  c #4E4E4E",
"N  c gray31",
"B  c #4C4B4A",
"V  c #564C43",
"C  c #594A41",
"Z  c #504F4D",
"A  c #504E4D",
"S  c #545047",
"D  c #5C5044",
"F  c #50504E",
"G  c #51504E",
"H  c #51514F",
"J  c #52514F",
"K  c #51514E",
"L  c #514F50",
"P  c #505050",
"I  c #515151",
"U  c #525250",
"Y  c #535250",
"T  c #535351",
"R  c gray32",
"E  c #535353",
"W  c #545351",
"Q  c #545452",
"!  c #555452",
"~  c #555553",
"^  c #565553",
"/  c gray33",
"(  c #555555",
")  c #565654",
"_  c #575654",
"`  c #575755",
"'  c #565656",
"]  c gray34",
"[  c #545453",
"{  c #585755",
"}  c #595754",
"|  c #585856",
" . c #595856",
".. c #595957",
"X. c #5A5957",
"o. c #595856",
"O. c #555459",
"+. c #57585A",
"@. c #585858",
"#. c gray35",
"$. c #5A5A58",
"%. c #5B5A58",
"&. c #5B5B59",
"*. c #5A5A5A",
"=. c #5B5B5B",
"-. c #5C5B59",
";. c #5C5C5A",
":. c #5D5C5A",
">. c #5D5D5B",
",. c #5E5D5B",
"<. c gray36",
"1. c #5D5D5D",
"2. c #5E5E5C",
"3. c #5F5E5C",
"4. c #5F5F5D",
"5. c gray37",
"6. c #5F5F5F",
"7. c #5C5C5B",
"8. c #635346",
"9. c #6C5545",
"0. c #61554B",
"q. c #6C5B4C",
"w. c #735A46",
"e. c #735D4E",
"r. c #665C53",
"t. c #6C5E53",
"y. c #605F5D",
"u. c #605F5D",
"i. c #60605E",
"p. c #61605E",
"a. c #61615F",
"s. c #62615F",
"d. c #61605E",
"f. c #7A6454",
"g. c #5D5E61",
"h. c #5F6162",
"j. c #616161",
"k. c #626260",
"l. c #636361",
"z. c #626262",
"x. c #646361",
"c. c #646462",
"v. c #666563",
"b. c #656565",
"n. c #676664",
"m. c gray40",
"M. c #636363",
"N. c #686765",
"B. c #696866",
"V. c #6A6967",
"C. c #696967",
"Z. c #66656A",
"A. c #686868",
"S. c #6B6A68",
"D. c gray42",
"F. c #6C6B69",
"G. c #6C6C6A",
"H. c #6F6E6C",
"J. c #6C6C6C",
"K. c #6A6A6A",
"L. c #737371",
"P. c #757472",
"I. c #767674",
"U. c #7C7B79",
"Y. c #866E5C",
"T. c #88715F",
"R. c #857365",
"E. c #8C7564",
"W. c #957B6A",
"Q. c #928171",
/* pixels */
"q x B v x , 6 a.m v ..m q & q q 6 q l 4 Q V.k...q 6 q l l l l q q q 6 p & p v v ) p l p T B l : T Q H x 6 6 m x x H { &.",
"q z l x x 4 6 &.H m ..H q > l l l p q > x ..) ..q 8 q q q l l 8 q u q l ; l v v H z z l l l q > l Z Q v 6 4 v m Q ) { ..",
"7 q 7 q q , , v H T Q v q , p q p 6 , & l H T 4.8 q p q q B m q q u q l ; z T Z x z p l u B l , u z l q : ; q l v x z z ",
": > ; : > ; : q 7 q q 7 , ; , , 4 > > ; x ) ) 4.7 p z q q Q ..l 7 q 8 u & B { H x x q l u ) l , # & # ; ; ; 6 6 6 6 1 , ",
"8 q q q q 8 q v > 8 6 7 6 4 7 6 6 7 8 > v >.) Q 6 q z q q T ) l q q 4 q & B { H B v l l q v q ; l B z z q & # + & ; : ; ",
"......) ) ..4.a.6 v l l p l l l l l p > v >...) 4 7 q q q z x q l q 6 q ; l H v l x x l 7 q 7 > l ....&.v 8 l >.z H Q m ",
">...) Q Q >.>.T 6 m p q q l l z B l q > x T H ) 6 4 7 q q q q q l q 7 l ; q z B z q p 8 8 8 q , l Q H B q : u v.x T W x ",
"v.>.) Q ) a.>.B , v q q q v H ..H q 7 > l l q B 7 , 6 p q 8 q l 8 6 7 x & 6 p B &.q 7 1 p q q ; q v B v l > 6 Q z v B q ",
"S.S.k.Q Q 4.&.m > q l q 8 l H T H q q ; ; & & # # : , , 6 , , 6 > 6 8 6 4 6 q q v 6 , 6 , 6 , ; q z H l > > 8 u p p q 6 ",
"k.k.>.Q Q &...H > q z p q q l p x 7 q , 7 q q 8 4 6 6 6 6 > & > : , 1 , > , 6 7 > . # : ; : & # ; ; > > ; & ; & ; ; & + ",
"&...) Q Q ) ) ) > 8 l q 7 8 q 8 q 6 q 4 l H T m z l p x B q 6 p H W W W ) >.a.a...8 a.H.V.G.a.S.V.&...a.-.W Z B B v B z ",
">.) ) &.&.) Q ..> 6 q 7 6 q q q x q q , q z l q p q q x m q q H z l l x H ..&.&.z & >.V.y.-.v -.V.y.4.>.m x v m m H Z B ",
"k.>.&.a.a...) ..> 6 q 8 q p z z q 8 7 & q x z l q 8 q B x 6 7 H v x x Z ..>.-...Q > F.P.b...m ..m H ) H z m ..) H H m x ",
"V.k.4.v.v.>.Q T > 6 q q q l l p 7 q 7 # q m v v l l z m x 7 8 Q Q H T &.a.a.&.) H ; k.S.4.v m v z x Z H T y.k.) W H B p ",
"S.v.a.a.k.4.T B > 4 6 7 7 7 7 6 z m z ; 8 l 8 7 q q q l p 6 6 B H Z W 4.x.y.{ T m : -.V.x.Q b.{ W m H Q Q &.&.H { W x q ",
"V.k.4.>.a.4.H l > > > : : > , , 4 q q # q z p p l p q p q 6 6 l l l v &.a.&.T m x ; Q v.N.-.U.v.b.-.>.a...W ..4.Q H l 6 ",
"J.S.b.4.) m B B + q 6 , 6 , , X + o & + 8 z l l q 6 q u q 6 , q l B m H 4.B Q l x : Q &.a.L.I.H.N.x.a.m y.&.4.{ Z x q 6 ",
") E m B z l q q , 4.4.&.4.4./ > l 7 7 > p l p q z 8 8 7 7 6 , q l B B v Q q x q x ; T 4.v.G.b.&.>.&.4.Q a.&.-.H B z q 4 ",
"T m B z z z l p # 4.b.&.k.S.&.; Q p q , u q q p x q 8 7 q 7 , q 8 q p z B q l l l ; B &.k.k.a.>.>.) >.{ { H H l z z u 6 ",
"q 7 6 7 7 6 , > o ) 4.T &.k.) # W q 6 : q q q z x l l l l 7 ; 4 , , 7 q q 8 p z l , m >.4.T T ) ..m m B l p l u u p q 6 ",
"q 7 7 q p q 7 6 ; &.4.<.k.k.) ; ..p 8 > q q q x z B v z z 4 + , : : > : & ; ; > > ; z H T l x B l q q q 8 7 q p 6 6 6 , ",
") T ) 4.4.&.) ) ; ) 4.k.b.4.m ; m q 8 : 8 8 8 p q l l q l 6 & q 6 6 6 > # > ; > & # ; + & & , ; , 4 > 6 1 > # , > > > ; ",
"&.E T ] ) N T ) : @.4.h.b.4.m ; q 6 6 ; 6 8 8 q 7 q q 6 l 7 > x x v x q 6 H x B b.&.l : 6 l z : H a.T &...x 6 B H T H m ",
"b.&.) ) T B B T ; ] &.E &.&.m & q 8 q > q p q q u z u 7 l 7 & u q p q 4 > T z x z l 4 & x b.a.> l &.z v H u ; z l l l p ",
"4.S.k.&.g.] B m > ) m m z ) T : l q 6 4 6 8 q q q 6 l , 6 > : 6 q 6 q , , q 8 l p , ; z T Q ..> l m p m v u ; 8 p q 8 6 ",
"&.k.4.&.k.4.m B , B q m B B q + q 6 , > > , 4 6 6 6 6 , 1 ; : 6 7 4 6 : : 6 4 q ; 4 q Q m B H > z v q z x q ; 7 q q 8 8 ",
") 4.<.4.b.k.m z X : . # + & ; + # # o X X + # & # ;   # & # ; : : ; > ; ; > ; ; + q T >.v x H > > , % : , : + : # & ; ; ",
"T &.4.k.b.4.m l ; 4.4.b.4.g.4.P W T T H T ) >.a.&.-.> { a.v.S.x.v.b.G.G.H.H.x.>.: B H m x m T ; l x l z x l q B u p l l ",
"T &.b.A.k.&.m l : 4.T m z B m m x x B x B v H Q B Z o m Q { y.&.4.k.a.k.a.>.) v > x l p l m m & v H H B x u q l z z l l ",
"T ] b.A.4.) T z + N B &.4.m q q H H Z Z Z Z H H x H ; Q W v { >.S.G.a.>...Q &.T # l l l x v v > x B T x z q l u B z l l ",
"B m &.4.) / T z > <.B m T T m T W H Z H T W H Z z z ; H Q B Z ..k.V.&...Q H >.) & l l v H B x 4 z l B p z l B p z l l p ",
"l q B T m T T l o b.&.B z T T m Q T H Q ..-...) v q # x >.) H W T 4.Q ..) T a...: p q x T z p , l q p 6 u q l 6 8 8 8 q ",
": B l q l q 8 q + Q 4.v z q q p B m ] ) m 4.4.z ) B : B &.T m m H ) ) T Q >.&.H # 8 l q 7 q 8 ; q q q 0 7 q q q q 7 7 7 ",
"  + ; + & # + + # T k.4.v B m z N E 4.4.) k.b.) E z ; T h.B B m Z T T H ..a.4.Q # # # ; , > #   : > , : : : : : ; ; : > ",
"6 > z q x z l l o x ..k.x H v l B m &.g.&.<.4.) v z # T 4.m ] ) a.4.&...y.v.>.T 6 Q >.) W ) H 1 T ) ) P B z x B ) ] &.<.",
"l ; m l H B B z # ) ) k.T >.m H T ) k.S.S.k.4.] z m ; B &.] H.b.V.x.4.-.>.>.Q v + H -.B u z x & m N P B l l v E &.) T T ",
"v # x q l q q 8 + &.x m T &.l &.T E ) 4.g.) m m z z # l T m k.k.a.y.4.>.&.Q H H > l q l p q p ; z z z l l z &.b.b.&.N B ",
"l # q 8 q 7 q 6 + T q q v Q l ) B m B z B z p z B q ; z N l l m ) W Q Q H x z B ; v z v z q l % l l l l l z E k.S.4.T v ",
";   + # & # ; #   > : : > , , , # , , : : ; & > : #   # ; : + ; & # # ; & + o # ; ) v x p q z + l l l z z l z m T m B z ",
"m z q z p q l q , 8 z x q q B , : l B l p q 7 l q z q , 6 &.z p q 7 8 z m B B H { -.6 p B u v , 6 7 q z B l l l p z m m ",
"z x T ..H H 4.V.q 8 m l v m B q > b.b.B m q , z z q q , 6 x l l u 1 q H v z x l z >.Z u l z q ; 0 q q q z T T z l z x B ",
"B z v H B v ..>.p 6 l q x x l 6 > k.b.N T q ; 7 p 7 7 : > q 7 q 6 : 7 Z v z B B ..V.{ z x B q % 7 l z x m / ) m B m m m ",
"H B m Q H H Q Q x 6 p q x l q 4 ; P E x m 7 # 6 : ; ; + + : ; ; 6 ; 6 z l q l z { 4.v l B m p # q z B l l B T E x B B B ",
"T m ) 4...Q Q m B 6 p q l q 8 6 > x v x T q 6 T T &.g.4.4.g.&.) B 6 8 x l z H W v v q q z m l # q l z p q p l z p p p u ",
"H v T ..H m H H l 6 u q q 6 6 6 : l z l B 7 7 4.z m T ) ) ) ) T B 6 6 z x B Q Q H x q u l B l # q p l z z l q q l l q q ",
"T B v v z v Q &.l 6 l q q 6 7 7 : q l q q > , T T &.T ) ) ) 4.4.l , 6 B B z x p Z l 8 u p l l # B z p p z B B B B z q q ",
"Q x x v m ) a.k.z q x 8 q q q 6 : 9 q 6 6 > 2 m ) &.v T T B ) m l 6 p ) H z z l l 7 4 q 7 q q # / B q q l B P E z l q 7 ",
"H l z T ..a.v.a.z q l 6 7 q 7 > . # + @ # # > z B N l v B q l 7 4 : 8 B l q p l l 7 4 8 1 4 7 @ z l l z B B z l l q 7 6 ",
"l T H B T m Q Q 8 > l H p q 4 : > T v.k.Q 8 o # : & # # & # # ; + # , > 7 6 , 7 , , : : : : & + 9 6 q 9 q q l 0 q 2 7 7 ",
"Q >...T Q H v z q , q l 8 8 , & B &.&.Q m 7 l &.H H H H B x H &.b.&.m 6 q l l z l q l l l q 7 6 q l l ; # o + o ; O ; , ",
"B m B x x v l q , & , , > 6 > # T Q T Q H > 4.V.x x B x z x H &.k.) m 6 ] b.b.b.b.k.b.b.k.&.E E O.A.k.q x v Q S z u v Q ",
"& & & # o > ; & ; # > ; & , ; o x v T ) T # a.H x z l x B m H T B z l > &.S.k.&.k.4.4.g.<.T E g.] b.L 1 x S V V t 5 z } ",
"H v B p , B x B B m &.H B H l 6 m Q Q v B + V.B p l x z l l l l B z p # T @.) T m m T ) T N ) g.g.b.m 4 a i y i s 3 t a ",
"B l l 7 + p q p q x Q B z x 7 , >.a...B z + k.l B ..a.&.v l z v l l p # &.&.&.4.) &.4.k.4.&.&.4.E ] B 1 t r h 9.Q.t.8.D ",
"B q l q # m l z q q z p l l 4 , ..) T B x # H q x T ..T B z z z z z z ; k.) T ) &.k.k.4.&.&.&.E <.<.A : < r e.f.E.j y r ",
"l 6 q q # H p q B z z p z l 4 4 m z p l z ; v x x z l l m Q m l v l q + 4.T T 4.) 4.4.) ) g.k.4.4.) l + * h T.Y.w.w = - ",
"8 q 7 4 ; l x 8 q q l l l l 7 # > # ; ; , & H x l B p l v G.V.>.l q q ; 4.m B m m m ) 4.4.] 4.J.b.b.u * i R.E.W.k Y.h e ",
": > ; ; + q x q q q l z l l 7 # v p p 8 8 & v l l v p l z k.4.) l q l ; k./ m m m m ) 4.4.4.k.S.] / } * t.t.f.9.d e.h i ",
"7 7 4 , # q B p q q l z l l 6 # ..v v p q # B l H ) B l q H B l q l B ; k.<.) m T T ) 4.k.k.b.S.4.m Q % r.C 8.f s h y y ",
"T m l q : p B l 8 q p l p q 6 + m z x q 7 + x x ..4.H z 8 l q 7 q z v ; 4.h.&.N E T ) g.b.b.b.b.h.T l % a C f C h s V 0."
};
